<svg version="1.2" xmlns="http://www.w3.org/2000/svg" viewBox="0 0 800 400" width="1000" height="500"><defs><linearGradient id="P" gradientUnits="userSpaceOnUse"/><linearGradient id="g1" x1="108" y1="152.8" x2="92.7" y2="218.5" href="#P"><stop stop-color="#c4c7ff"/><stop offset="1" stop-color="#5b8be2"/></linearGradient><linearGradient id="g2" x1="298.6" y1="224.4" x2="155.1" y2="224.4" href="#P"><stop stop-color="#dbeffe"/><stop offset="1"/></linearGradient><linearGradient id="g3" x1="794.6" y1="275.3" x2="146.8" y2="275.3" href="#P"><stop stop-color="#dbeffe"/><stop offset="1"/></linearGradient><linearGradient id="g4" x1="225.7" y1="210.6" x2="99.6" y2="210.6" href="#P"><stop stop-color="#dbeffe"/><stop offset="1"/></linearGradient><linearGradient id="g5" x1="614.8" y1="121.5" x2="278" y2="286" href="#P"><stop offset="0" stop-color="#fff6d6"/><stop offset="1" stop-color="#5b8be2"/></linearGradient><linearGradient id="g6" x1="482.1" y1="45.1" x2="725.6" y2="157.9" href="#P"><stop offset="0" stop-color="#fff6d6"/><stop offset="1" stop-color="#5b8be2"/></linearGradient><linearGradient id="g7" x1="497.6" y1="169.3" x2="469.4" y2="278.8" href="#P"><stop offset="0" stop-color="#fff6d6"/><stop offset="1" stop-color="#5b8be2"/></linearGradient><linearGradient id="g8" x1="124.4" y1="143.5" x2="115.1" y2="163.6" href="#P"><stop stop-color="#c4c7ff"/><stop offset="1" stop-color="#5b8be2"/></linearGradient><linearGradient id="g9" x1="4.9" y1="171.5" x2="486.2" y2="80.9" href="#P"><stop stop-color="#fff"/><stop offset="1" stop-color="#7c97f4"/></linearGradient><linearGradient id="g10" x1="451.4" y1="86.1" x2="549.7" y2="86.1" href="#P"><stop stop-color="#fff"/><stop offset="1" stop-color="#7c97f4"/></linearGradient><linearGradient id="g11" x1="191.9" y1="140" x2="-9.8" y2="258.6" href="#P"><stop stop-color="#7c97f4"/><stop offset="1" stop-color="#fff"/></linearGradient><linearGradient id="g12" x1="528.8" y1="84.7" x2="813.9" y2="197.8" href="#P"><stop stop-color="#7c97f4"/><stop offset="1" stop-color="#fff"/></linearGradient><linearGradient id="g13" x1="10.8" y1="134.2" x2="199.4" y2="100.8" href="#P"><stop stop-color="#fff"/><stop offset="1" stop-color="#7c97f4"/></linearGradient><linearGradient id="g14" x1="459.8" y1="197.1" x2="425.4" y2="330.6" href="#P"><stop stop-color="#7c97f4"/><stop offset="1" stop-color="#fff"/></linearGradient><linearGradient id="g15" x1="464.5" y1="179.9" x2="220.1" y2="318.6" href="#P"><stop stop-color="#7c97f4"/><stop offset="1" stop-color="#fff"/></linearGradient><linearGradient id="g16" x1="207.8" y1="108.8" x2="447.7" y2="77.3" href="#P"><stop/><stop offset="1" stop-color="#ffffae"/></linearGradient><linearGradient id="g17" x1="416.9" y1="105.4" x2="613.4" y2="156" href="#P"><stop offset=".4" stop-color="#ffffae"/><stop offset="1"/></linearGradient><linearGradient id="g18" x1="403.8" y1="153.4" x2="626.5" y2="210.8" href="#P"><stop offset=".5" stop-color="#ffffae"/><stop offset="1"/></linearGradient><linearGradient id="g19" x1="440.1" y1="193.1" x2="277.2" y2="256.8" href="#P"><stop offset=".1" stop-color="#ffffae"/><stop offset="1"/></linearGradient><linearGradient id="g20" x1="485.9" y1="219.9" x2="439.5" y2="277.3" href="#P"><stop stop-color="#ffffae"/><stop offset="1"/></linearGradient></defs><style>.a{fill:url(#g1)}.b{fill:#fffcf0}.c{opacity:.1;mix-blend-mode:screen;fill:url(#g2)}.d{opacity:.1;mix-blend-mode:screen;fill:url(#g3)}.e{opacity:.1;mix-blend-mode:screen;fill:url(#g4)}.f{fill:#a7c8fb}.g{fill:url(#g5)}.h{fill:url(#g6)}.i{fill:url(#g7)}.j{opacity:.6;fill:url(#g8)}.k{opacity:.6;mix-blend-mode:multiply;fill:url(#g9)}.l{mix-blend-mode:multiply;fill:url(#g10)}.m{mix-blend-mode:multiply;fill:url(#g11)}.n{opacity:.6;mix-blend-mode:multiply;fill:url(#g12)}.o{mix-blend-mode:multiply;fill:url(#g13)}.p{opacity:.6;mix-blend-mode:multiply;fill:url(#g14)}.q{opacity:.6;mix-blend-mode:multiply;fill:url(#g15)}.r{mix-blend-mode:screen;fill:url(#g16)}.s{mix-blend-mode:screen;fill:url(#g17)}.t{mix-blend-mode:screen;fill:url(#g18)}.u{mix-blend-mode:screen;fill:url(#g19)}.v{mix-blend-mode:screen;fill:url(#g20)}</style><g style="opacity:.4"><path class="a" d="m275.3 202.3c-10.1 0.8-20.3 1.6-30.5 2.4-11.6 0.6-23.2 0.9-34.9 2-11.8 1.2-24.1 2.6-35.4 5-17.2 3.8-21.3 7.6-3 9.3 14.3 0.9 30.2-1.2 45-3.3 11.3-2.2 22.9-3.7 34.2-3.1-0.3-6.8 27.4-6 37.6-4.9-1.5-7.1 37.8-6.4 48.3-5.8 38.1 2.7 36.1 9.9 85.7 8.1-13.9 2-26.9 0.8-40.6 1.7-29.7 1.6-59.2 2.2-89.1 4.1-44.5 2.2-89.4 7-134.2 10.5-17.7 0.8-36.4 2.3-52.6 0.7-11.1-1.3-14.5-6-10.6-10.5 2.7-3.7 12.6-5.7 21.7-6.7 18.1-1.7 36.1-1.7 54.1-3.5 9.4-1.5 8.8-5.7 16.5-7.9 13-4.5 30.1-5.8 44.4-5-6.2-2.3 2.4-5.5 10.3-6.3 7.5-1.1 14.9-1.2 22.1-1.1-1.7-3.3 2.2-7.1 11.1-9.5 21-5.5 46.3-4.2 65.2-1.9 22.7 3.1 45 7 71.6 6.8 7-0.1 14-0.3 21.1-0.9 3.5-0.2 6.8-0.3 10.2-1.1 1-0.3 2-0.7 3.5-0.6-11.1 4.1-21.4 6.1-35.3 7.8-24.3 3.6-65.3 6.5-85.1 2.5-3.5 8.4-34.3 9.8-51.3 11.2z"/></g><g style="opacity:.4"></g><g style="opacity:.4"><path class="b" d="m159.7 28.9c0 0.6-0.4 1-0.9 1-0.6 0-1-0.4-1-1 0-0.5 0.4-0.9 1-0.9 0.5 0 0.9 0.4 0.9 0.9z"/><path class="b" d="m223.8 53.2c0 0.5-0.4 0.9-0.9 0.9-0.5 0-0.9-0.4-0.9-0.9 0-0.5 0.4-0.9 0.9-0.9 0.5 0 0.9 0.4 0.9 0.9z"/><path class="b" d="m441.7 23.6c0 0.6-0.4 1-0.9 1-0.5 0-1-0.4-1-1 0-0.5 0.5-0.9 1-0.9 0.5 0 0.9 0.4 0.9 0.9z"/><path class="b" d="m374.2 57.6c0 0.2-0.2 0.4-0.4 0.4-0.3 0-0.5-0.2-0.5-0.4 0-0.3 0.2-0.5 0.5-0.5 0.2 0 0.4 0.2 0.4 0.5z"/><path class="b" d="m394.5 28.2c0 0.2-0.2 0.5-0.5 0.5-0.2 0-0.4-0.3-0.4-0.5 0-0.3 0.2-0.5 0.4-0.5 0.3 0 0.5 0.2 0.5 0.5z"/><path class="b" d="m350.7 49c0 0.3-0.2 0.5-0.4 0.5-0.3 0-0.5-0.2-0.5-0.5 0-0.2 0.2-0.5 0.5-0.5 0.2 0 0.4 0.3 0.4 0.5z"/><path class="b" d="m327.7 26.2c0 0.3-0.2 0.5-0.4 0.5-0.3 0-0.5-0.2-0.5-0.5 0-0.2 0.2-0.4 0.5-0.4 0.2 0 0.4 0.2 0.4 0.4z"/><path class="b" d="m285.4 42.4c0 0.2-0.2 0.5-0.5 0.5-0.2 0-0.4-0.3-0.4-0.5 0-0.3 0.2-0.5 0.4-0.5 0.3 0 0.5 0.2 0.5 0.5z"/><path class="b" d="m240.1 59.5c0 0.2-0.2 0.4-0.4 0.4-0.3 0-0.5-0.2-0.5-0.4 0-0.3 0.2-0.5 0.5-0.5 0.2 0 0.4 0.2 0.4 0.5z"/><path class="b" d="m206.7 23c0 0.2-0.2 0.5-0.4 0.5-0.3 0-0.5-0.3-0.5-0.5 0-0.3 0.2-0.5 0.5-0.5 0.2 0 0.4 0.2 0.4 0.5z"/><path class="b" d="m150.5 54.1c0 0.3-0.2 0.5-0.5 0.5-0.2 0-0.4-0.2-0.4-0.5 0-0.2 0.2-0.5 0.4-0.5 0.3 0 0.5 0.3 0.5 0.5z"/><path class="b" d="m117.2 22.1c0 0.2-0.2 0.4-0.4 0.4-0.3 0-0.5-0.2-0.5-0.4 0-0.3 0.2-0.5 0.5-0.5 0.2 0 0.4 0.2 0.4 0.5z"/><path class="b" d="m133.1 43.5c0 0.2-0.2 0.5-0.4 0.5-0.3 0-0.5-0.3-0.5-0.5 0-0.3 0.2-0.5 0.5-0.5 0.2 0 0.4 0.2 0.4 0.5z"/><path class="b" d="m473.7 58.2c0 0.2-0.2 0.4-0.5 0.4-0.2 0-0.4-0.2-0.4-0.4 0-0.3 0.2-0.5 0.4-0.5 0.3 0 0.5 0.2 0.5 0.5z"/><path class="b" d="m513.2 28.2c0 0.2-0.2 0.5-0.5 0.5-0.2 0-0.4-0.3-0.4-0.5 0-0.3 0.2-0.5 0.4-0.5 0.3 0 0.5 0.2 0.5 0.5z"/><path class="b" d="m432.1 39.9c0 0.5-0.5 0.9-1 0.9-0.5 0-0.9-0.4-0.9-0.9 0-0.5 0.4-0.9 0.9-0.9 0.5 0 1 0.4 1 0.9z"/><path class="b" d="m383.1 63.9c0 0.5-0.4 0.9-0.9 0.9-0.5 0-0.9-0.4-0.9-0.9 0-0.5 0.4-0.9 0.9-0.9 0.5 0 0.9 0.4 0.9 0.9z"/></g><g style="opacity:.4"><path class="b" d="m2.8 72.3c0 0.5-0.4 0.9-0.9 0.9-0.5 0-0.9-0.4-0.9-0.9 0-0.5 0.4-0.9 0.9-0.9 0.5 0 0.9 0.4 0.9 0.9z"/><path class="b" d="m67 96.5c0 0.5-0.5 0.9-1 0.9-0.5 0-0.9-0.4-0.9-0.9 0-0.5 0.4-0.9 0.9-0.9 0.5 0 1 0.4 1 0.9z"/><path class="b" d="m284.9 67c0 0.5-0.5 0.9-1 0.9-0.5 0-0.9-0.4-0.9-0.9 0-0.5 0.4-0.9 0.9-0.9 0.5 0 1 0.4 1 0.9z"/><path class="b" d="m217.4 100.9c0 0.2-0.2 0.5-0.5 0.5-0.2 0-0.4-0.3-0.4-0.5 0-0.3 0.2-0.5 0.4-0.5 0.3 0 0.5 0.2 0.5 0.5z"/><path class="b" d="m237.6 71.5c0 0.3-0.2 0.5-0.4 0.5-0.3 0-0.5-0.2-0.5-0.5 0-0.2 0.2-0.4 0.5-0.4 0.2 0 0.4 0.2 0.4 0.4z"/><path class="b" d="m193.9 92.3c0 0.3-0.2 0.5-0.5 0.5-0.2 0-0.4-0.2-0.4-0.5 0-0.2 0.2-0.4 0.4-0.4 0.3 0 0.5 0.2 0.5 0.4z"/><path class="b" d="m170.9 69.6c0 0.2-0.2 0.4-0.5 0.4-0.2 0-0.4-0.2-0.4-0.4 0-0.3 0.2-0.5 0.4-0.5 0.3 0 0.5 0.2 0.5 0.5z"/><path class="b" d="m128.6 85.7c0 0.3-0.3 0.5-0.5 0.5-0.3 0-0.5-0.2-0.5-0.5 0-0.2 0.2-0.4 0.5-0.4 0.2 0 0.5 0.2 0.5 0.4z"/><path class="b" d="m83.3 102.8c0 0.3-0.2 0.5-0.5 0.5-0.2 0-0.4-0.2-0.4-0.5 0-0.3 0.2-0.5 0.4-0.5 0.3 0 0.5 0.2 0.5 0.5z"/><path class="b" d="m49.9 66.3c0 0.3-0.2 0.5-0.5 0.5-0.2 0-0.4-0.2-0.4-0.5 0-0.2 0.2-0.4 0.4-0.4 0.3 0 0.5 0.2 0.5 0.4z"/><path class="b" d="m-6.4 97.4c0 0.3-0.2 0.5-0.4 0.5-0.3 0-0.5-0.2-0.5-0.5 0-0.2 0.2-0.4 0.5-0.4 0.2 0 0.4 0.2 0.4 0.4z"/><path class="b" d="m-39.6 65.4c0 0.3-0.2 0.5-0.5 0.5-0.2 0-0.4-0.2-0.4-0.5 0-0.3 0.2-0.5 0.4-0.5 0.3 0 0.5 0.2 0.5 0.5z"/><path class="b" d="m-23.7 86.8c0 0.3-0.2 0.5-0.5 0.5-0.2 0-0.4-0.2-0.4-0.5 0-0.2 0.2-0.4 0.4-0.4 0.3 0 0.5 0.2 0.5 0.4z"/><path class="b" d="m316.9 101.5c0 0.3-0.2 0.5-0.5 0.5-0.2 0-0.5-0.2-0.5-0.5 0-0.3 0.3-0.5 0.5-0.5 0.3 0 0.5 0.2 0.5 0.5z"/><path class="b" d="m356.4 71.5c0 0.3-0.2 0.5-0.5 0.5-0.2 0-0.5-0.2-0.5-0.5 0-0.2 0.3-0.4 0.5-0.4 0.3 0 0.5 0.2 0.5 0.4z"/><path class="b" d="m275.2 83.2c0 0.6-0.4 1-0.9 1-0.5 0-0.9-0.4-0.9-1 0-0.5 0.4-0.9 0.9-0.9 0.5 0 0.9 0.4 0.9 0.9z"/><path class="b" d="m226.3 107.2c0 0.5-0.4 0.9-0.9 0.9-0.6 0-1-0.4-1-0.9 0-0.5 0.4-0.9 1-0.9 0.5 0 0.9 0.4 0.9 0.9z"/></g><g style="opacity:.4"><path class="b" d="m324.5 14.4c0 0.5-0.4 0.9-0.9 0.9-0.6 0-1-0.4-1-0.9 0-0.5 0.4-0.9 1-0.9 0.5 0 0.9 0.4 0.9 0.9z"/><path class="b" d="m388.6 38.6c0 0.5-0.4 1-0.9 1-0.5 0-1-0.5-1-1 0-0.5 0.5-0.9 1-0.9 0.5 0 0.9 0.4 0.9 0.9z"/><path class="b" d="m606.5 9.1c0 0.5-0.4 0.9-0.9 0.9-0.5 0-1-0.4-1-0.9 0-0.5 0.5-0.9 1-0.9 0.5 0 0.9 0.4 0.9 0.9z"/><path class="b" d="m539 43c0 0.3-0.2 0.5-0.4 0.5-0.3 0-0.5-0.2-0.5-0.5 0-0.3 0.2-0.5 0.5-0.5 0.2 0 0.4 0.2 0.4 0.5z"/><path class="b" d="m559.3 13.6c0 0.3-0.2 0.5-0.5 0.5-0.2 0-0.4-0.2-0.4-0.5 0-0.2 0.2-0.4 0.4-0.4 0.3 0 0.5 0.2 0.5 0.4z"/><path class="b" d="m515.5 34.5c0 0.2-0.2 0.4-0.4 0.4-0.3 0-0.5-0.2-0.5-0.4 0-0.3 0.2-0.5 0.5-0.5 0.2 0 0.4 0.2 0.4 0.5z"/><path class="b" d="m492.5 11.7c0 0.2-0.2 0.4-0.4 0.4-0.3 0-0.5-0.2-0.5-0.4 0-0.3 0.2-0.5 0.5-0.5 0.2 0 0.4 0.2 0.4 0.5z"/><path class="b" d="m450.2 27.8c0 0.3-0.2 0.5-0.5 0.5-0.2 0-0.4-0.2-0.4-0.5 0-0.2 0.2-0.4 0.4-0.4 0.3 0 0.5 0.2 0.5 0.4z"/><path class="b" d="m404.9 44.9c0 0.3-0.2 0.5-0.4 0.5-0.3 0-0.5-0.2-0.5-0.5 0-0.2 0.2-0.4 0.5-0.4 0.2 0 0.4 0.2 0.4 0.4z"/><path class="b" d="m371.5 8.4c0 0.3-0.2 0.5-0.4 0.5-0.3 0-0.5-0.2-0.5-0.5 0-0.2 0.2-0.4 0.5-0.4 0.2 0 0.4 0.2 0.4 0.4z"/><path class="b" d="m315.3 39.6c0 0.2-0.2 0.4-0.5 0.4-0.2 0-0.4-0.2-0.4-0.4 0-0.3 0.2-0.5 0.4-0.5 0.3 0 0.5 0.2 0.5 0.5z"/><path class="b" d="m282 7.5c0 0.3-0.2 0.5-0.4 0.5-0.3 0-0.5-0.2-0.5-0.5 0-0.2 0.2-0.4 0.5-0.4 0.2 0 0.4 0.2 0.4 0.4z"/><path class="b" d="m297.9 28.9c0 0.3-0.2 0.5-0.4 0.5-0.3 0-0.5-0.2-0.5-0.5 0-0.2 0.2-0.4 0.5-0.4 0.2 0 0.4 0.2 0.4 0.4z"/><path class="b" d="m638.5 43.6c0 0.3-0.2 0.5-0.5 0.5-0.2 0-0.4-0.2-0.4-0.5 0-0.2 0.2-0.4 0.4-0.4 0.3 0 0.5 0.2 0.5 0.4z"/><path class="b" d="m678 13.6c0 0.3-0.2 0.5-0.5 0.5-0.2 0-0.4-0.2-0.4-0.5 0-0.2 0.2-0.4 0.4-0.4 0.3 0 0.5 0.2 0.5 0.4z"/><path class="b" d="m596.8 25.4c0 0.5-0.4 0.9-0.9 0.9-0.5 0-0.9-0.4-0.9-0.9 0-0.5 0.4-1 0.9-1 0.5 0 0.9 0.5 0.9 1z"/><path class="b" d="m547.9 49.3c0 0.5-0.4 1-0.9 1-0.5 0-0.9-0.5-0.9-1 0-0.5 0.4-0.9 0.9-0.9 0.5 0 0.9 0.4 0.9 0.9z"/></g><g style="opacity:.4"><path class="b" d="m506.8 40.3c0 0.5-0.4 0.9-0.9 0.9-0.5 0-0.9-0.4-0.9-0.9 0-0.5 0.4-0.9 0.9-0.9 0.5 0 0.9 0.4 0.9 0.9z"/><path class="b" d="m571 64.5c0 0.6-0.5 1-1 1-0.5 0-0.9-0.4-0.9-1 0-0.5 0.4-0.9 0.9-0.9 0.5 0 1 0.4 1 0.9z"/><path class="b" d="m788.9 35c0 0.5-0.5 0.9-1 0.9-0.5 0-0.9-0.4-0.9-0.9 0-0.5 0.4-0.9 0.9-0.9 0.5 0 1 0.4 1 0.9z"/><path class="b" d="m721.4 68.9c0 0.3-0.2 0.5-0.5 0.5-0.2 0-0.4-0.2-0.4-0.5 0-0.2 0.2-0.4 0.4-0.4 0.3 0 0.5 0.2 0.5 0.4z"/><path class="b" d="m741.6 39.6c0 0.2-0.2 0.4-0.4 0.4-0.3 0-0.5-0.2-0.5-0.4 0-0.3 0.2-0.5 0.5-0.5 0.2 0 0.4 0.2 0.4 0.5z"/><path class="b" d="m697.9 60.4c0 0.2-0.2 0.4-0.5 0.4-0.2 0-0.4-0.2-0.4-0.4 0-0.3 0.2-0.5 0.4-0.5 0.3 0 0.5 0.2 0.5 0.5z"/><path class="b" d="m674.9 37.6c0 0.3-0.2 0.5-0.5 0.5-0.2 0-0.4-0.2-0.4-0.5 0-0.3 0.2-0.5 0.4-0.5 0.3 0 0.5 0.2 0.5 0.5z"/><path class="b" d="m632.5 53.8c0 0.2-0.2 0.4-0.4 0.4-0.3 0-0.5-0.2-0.5-0.4 0-0.3 0.2-0.5 0.5-0.5 0.2 0 0.4 0.2 0.4 0.5z"/><path class="b" d="m587.3 70.8c0 0.3-0.2 0.5-0.5 0.5-0.2 0-0.4-0.2-0.4-0.5 0-0.2 0.2-0.4 0.4-0.4 0.3 0 0.5 0.2 0.5 0.4z"/><path class="b" d="m553.9 34.3c0 0.3-0.2 0.5-0.5 0.5-0.2 0-0.4-0.2-0.4-0.5 0-0.2 0.2-0.4 0.4-0.4 0.3 0 0.5 0.2 0.5 0.4z"/><path class="b" d="m497.6 65.5c0 0.2-0.2 0.4-0.4 0.4-0.3 0-0.5-0.2-0.5-0.4 0-0.3 0.2-0.5 0.5-0.5 0.2 0 0.4 0.2 0.4 0.5z"/><path class="b" d="m464.4 33.4c0 0.3-0.2 0.5-0.5 0.5-0.2 0-0.4-0.2-0.4-0.5 0-0.2 0.2-0.4 0.4-0.4 0.3 0 0.5 0.2 0.5 0.4z"/><path class="b" d="m480.3 54.8c0 0.3-0.2 0.5-0.5 0.5-0.2 0-0.4-0.2-0.4-0.5 0-0.2 0.2-0.4 0.4-0.4 0.3 0 0.5 0.2 0.5 0.4z"/><path class="b" d="m820.9 69.5c0 0.3-0.2 0.5-0.5 0.5-0.2 0-0.5-0.2-0.5-0.5 0-0.2 0.3-0.4 0.5-0.4 0.3 0 0.5 0.2 0.5 0.4z"/><path class="b" d="m779.2 51.3c0 0.5-0.4 0.9-0.9 0.9-0.5 0-0.9-0.4-0.9-0.9 0-0.5 0.4-1 0.9-1 0.5 0 0.9 0.5 0.9 1z"/><path class="b" d="m730.3 75.3c0 0.5-0.4 0.9-0.9 0.9-0.6 0-1-0.4-1-0.9 0-0.6 0.4-1 1-1 0.5 0 0.9 0.4 0.9 1z"/></g><g style="opacity:.4"><path class="b" d="m760.3 7.3c0 0.5-0.4 1-0.9 1-0.5 0-0.9-0.5-0.9-1 0-0.5 0.4-0.9 0.9-0.9 0.5 0 0.9 0.4 0.9 0.9z"/><path class="b" d="m824.5 31.6c0 0.5-0.5 0.9-1 0.9-0.5 0-0.9-0.4-0.9-0.9 0-0.5 0.4-0.9 0.9-0.9 0.5 0 1 0.4 1 0.9z"/><path class="b" d="m840.8 37.9c0 0.2-0.2 0.4-0.4 0.4-0.3 0-0.5-0.2-0.5-0.4 0-0.3 0.2-0.5 0.5-0.5 0.2 0 0.4 0.2 0.4 0.5z"/><path class="b" d="m807.4 1.4c0 0.2-0.2 0.4-0.5 0.4-0.2 0-0.4-0.2-0.4-0.4 0-0.3 0.2-0.5 0.4-0.5 0.3 0 0.5 0.2 0.5 0.5z"/><path class="b" d="m751.1 32.5c0 0.3-0.2 0.5-0.4 0.5-0.3 0-0.5-0.2-0.5-0.5 0-0.3 0.2-0.5 0.5-0.5 0.2 0 0.4 0.2 0.4 0.5z"/><path class="b" d="m717.9 0.5c0 0.2-0.2 0.4-0.5 0.4-0.2 0-0.4-0.2-0.4-0.4 0-0.3 0.2-0.5 0.4-0.5 0.3 0 0.5 0.2 0.5 0.5z"/><path class="b" d="m733.8 21.9c0 0.2-0.2 0.4-0.5 0.4-0.2 0-0.4-0.2-0.4-0.4 0-0.3 0.2-0.5 0.4-0.5 0.3 0 0.5 0.2 0.5 0.5z"/></g><g style="opacity:.5"><g style="opacity:.4"><path class="b" d="m282.8 218.6c0 0.4-0.3 0.8-0.8 0.8-0.4 0-0.8-0.4-0.8-0.8 0-0.5 0.4-0.8 0.8-0.8 0.5 0 0.8 0.3 0.8 0.8z"/><path class="b" d="m338.7 239.7c0 0.4-0.4 0.8-0.8 0.8-0.5 0-0.8-0.4-0.8-0.8 0-0.5 0.3-0.8 0.8-0.8 0.4 0 0.8 0.3 0.8 0.8z"/><path class="b" d="m528.4 214c0 0.4-0.3 0.8-0.8 0.8-0.4 0-0.8-0.4-0.8-0.8 0-0.5 0.4-0.8 0.8-0.8 0.5 0 0.8 0.3 0.8 0.8z"/><path class="b" d="m469.7 243.5c0 0.2-0.2 0.4-0.4 0.4-0.2 0-0.4-0.2-0.4-0.4 0-0.2 0.2-0.4 0.4-0.4 0.2 0 0.4 0.2 0.4 0.4z"/><path class="b" d="m487.3 217.9c0 0.2-0.2 0.4-0.4 0.4-0.2 0-0.4-0.2-0.4-0.4 0-0.2 0.2-0.4 0.4-0.4 0.2 0 0.4 0.2 0.4 0.4z"/><path class="b" d="m449.2 236.1c0 0.2-0.2 0.4-0.4 0.4-0.2 0-0.4-0.2-0.4-0.4 0-0.3 0.2-0.4 0.4-0.4 0.2 0 0.4 0.1 0.4 0.4z"/><path class="b" d="m429.2 216.2c0 0.2-0.2 0.4-0.4 0.4-0.2 0-0.4-0.2-0.4-0.4 0-0.2 0.2-0.4 0.4-0.4 0.2 0 0.4 0.2 0.4 0.4z"/><path class="b" d="m392.3 230.3c0 0.2-0.2 0.4-0.4 0.4-0.2 0-0.4-0.2-0.4-0.4 0-0.2 0.2-0.4 0.4-0.4 0.2 0 0.4 0.2 0.4 0.4z"/><path class="b" d="m352.9 245.2c0 0.2-0.2 0.4-0.4 0.4-0.2 0-0.4-0.2-0.4-0.4 0-0.3 0.2-0.4 0.4-0.4 0.2 0 0.4 0.1 0.4 0.4z"/><path class="b" d="m323.8 213.4c0 0.2-0.2 0.4-0.4 0.4-0.2 0-0.4-0.2-0.4-0.4 0-0.2 0.2-0.4 0.4-0.4 0.2 0 0.4 0.2 0.4 0.4z"/><path class="b" d="m274.8 240.5c0 0.2-0.2 0.4-0.4 0.4-0.2 0-0.4-0.2-0.4-0.4 0-0.2 0.2-0.4 0.4-0.4 0.2 0 0.4 0.2 0.4 0.4z"/><path class="b" d="m245.9 212.6c0 0.2-0.2 0.4-0.4 0.4-0.2 0-0.4-0.2-0.4-0.4 0-0.2 0.2-0.4 0.4-0.4 0.2 0 0.4 0.2 0.4 0.4z"/><path class="b" d="m259.7 231.2c0 0.3-0.2 0.4-0.4 0.4-0.2 0-0.4-0.1-0.4-0.4 0-0.2 0.2-0.4 0.4-0.4 0.2 0 0.4 0.2 0.4 0.4z"/><path class="b" d="m556.3 244c0 0.3-0.2 0.4-0.4 0.4-0.2 0-0.4-0.1-0.4-0.4 0-0.2 0.2-0.4 0.4-0.4 0.2 0 0.4 0.2 0.4 0.4z"/><path class="b" d="m590.7 217.9c0 0.2-0.2 0.4-0.4 0.4-0.2 0-0.4-0.2-0.4-0.4 0-0.2 0.2-0.4 0.4-0.4 0.2 0 0.4 0.2 0.4 0.4z"/><path class="b" d="m520 228.1c0 0.5-0.3 0.8-0.8 0.8-0.4 0-0.8-0.3-0.8-0.8 0-0.4 0.4-0.8 0.8-0.8 0.5 0 0.8 0.4 0.8 0.8z"/><path class="b" d="m477.4 249c0 0.5-0.3 0.8-0.8 0.8-0.4 0-0.8-0.3-0.8-0.8 0-0.4 0.4-0.8 0.8-0.8 0.5 0 0.8 0.4 0.8 0.8z"/></g><g style="opacity:.4"><path class="b" d="m146.3 256.3c0 0.5-0.4 0.8-0.9 0.8-0.4 0-0.8-0.3-0.8-0.8 0-0.4 0.4-0.8 0.8-0.8 0.5 0 0.9 0.4 0.9 0.8z"/><path class="b" d="m202.1 277.4c0 0.5-0.4 0.8-0.8 0.8-0.5 0-0.8-0.3-0.8-0.8 0-0.4 0.3-0.8 0.8-0.8 0.4 0 0.8 0.4 0.8 0.8z"/><path class="b" d="m391.8 251.7c0 0.4-0.3 0.8-0.8 0.8-0.4 0-0.8-0.4-0.8-0.8 0-0.4 0.4-0.8 0.8-0.8 0.5 0 0.8 0.4 0.8 0.8z"/><path class="b" d="m333.1 281.2c0 0.3-0.2 0.4-0.4 0.4-0.2 0-0.4-0.1-0.4-0.4 0-0.2 0.2-0.4 0.4-0.4 0.2 0 0.4 0.2 0.4 0.4z"/><path class="b" d="m350.7 255.7c0 0.2-0.1 0.4-0.4 0.4-0.2 0-0.4-0.2-0.4-0.4 0-0.3 0.2-0.4 0.4-0.4 0.3 0 0.4 0.1 0.4 0.4z"/><path class="b" d="m312.6 273.8c0 0.2-0.1 0.4-0.4 0.4-0.2 0-0.4-0.2-0.4-0.4 0-0.2 0.2-0.4 0.4-0.4 0.3 0 0.4 0.2 0.4 0.4z"/><path class="b" d="m292.6 254c0 0.2-0.2 0.4-0.4 0.4-0.2 0-0.4-0.2-0.4-0.4 0-0.3 0.2-0.4 0.4-0.4 0.2 0 0.4 0.1 0.4 0.4z"/><path class="b" d="m255.7 268c0 0.3-0.1 0.4-0.4 0.4-0.2 0-0.4-0.1-0.4-0.4 0-0.2 0.2-0.4 0.4-0.4 0.3 0 0.4 0.2 0.4 0.4z"/><path class="b" d="m216.3 282.9c0 0.2-0.1 0.4-0.4 0.4-0.2 0-0.4-0.2-0.4-0.4 0-0.2 0.2-0.4 0.4-0.4 0.3 0 0.4 0.2 0.4 0.4z"/><path class="b" d="m187.2 251.1c0 0.3-0.2 0.4-0.4 0.4-0.2 0-0.4-0.1-0.4-0.4 0-0.2 0.2-0.4 0.4-0.4 0.2 0 0.4 0.2 0.4 0.4z"/><path class="b" d="m138.2 278.2c0 0.3-0.1 0.4-0.4 0.4-0.2 0-0.4-0.1-0.4-0.4 0-0.2 0.2-0.4 0.4-0.4 0.3 0 0.4 0.2 0.4 0.4z"/><path class="b" d="m109.3 250.3c0 0.2-0.2 0.4-0.4 0.4-0.2 0-0.4-0.2-0.4-0.4 0-0.2 0.2-0.4 0.4-0.4 0.2 0 0.4 0.2 0.4 0.4z"/><path class="b" d="m123.1 269c0 0.2-0.1 0.4-0.4 0.4-0.2 0-0.4-0.2-0.4-0.4 0-0.2 0.2-0.4 0.4-0.4 0.3 0 0.4 0.2 0.4 0.4z"/><path class="b" d="m419.7 281.8c0 0.2-0.1 0.4-0.4 0.4-0.2 0-0.4-0.2-0.4-0.4 0-0.3 0.2-0.4 0.4-0.4 0.3 0 0.4 0.1 0.4 0.4z"/><path class="b" d="m454.1 255.7c0 0.2-0.1 0.4-0.4 0.4-0.2 0-0.4-0.2-0.4-0.4 0-0.3 0.2-0.4 0.4-0.4 0.3 0 0.4 0.1 0.4 0.4z"/><path class="b" d="m383.5 265.9c0 0.4-0.4 0.8-0.8 0.8-0.5 0-0.9-0.4-0.9-0.8 0-0.5 0.4-0.8 0.9-0.8 0.4 0 0.8 0.3 0.8 0.8z"/><path class="b" d="m340.8 286.8c0 0.4-0.3 0.8-0.8 0.8-0.4 0-0.8-0.4-0.8-0.8 0-0.5 0.4-0.9 0.8-0.9 0.5 0 0.8 0.4 0.8 0.9z"/></g><g style="opacity:.4"><path class="b" d="m426.4 205.9c0 0.4-0.4 0.8-0.8 0.8-0.5 0-0.9-0.4-0.9-0.8 0-0.4 0.4-0.8 0.9-0.8 0.4 0 0.8 0.4 0.8 0.8z"/><path class="b" d="m482.2 227c0 0.5-0.4 0.8-0.8 0.8-0.5 0-0.8-0.3-0.8-0.8 0-0.4 0.3-0.8 0.8-0.8 0.4 0 0.8 0.4 0.8 0.8z"/><path class="b" d="m672 201.3c0 0.4-0.4 0.8-0.8 0.8-0.5 0-0.9-0.4-0.9-0.8 0-0.5 0.4-0.8 0.9-0.8 0.4 0 0.8 0.3 0.8 0.8z"/><path class="b" d="m613.2 230.8c0 0.2-0.2 0.4-0.4 0.4-0.2 0-0.4-0.2-0.4-0.4 0-0.2 0.2-0.4 0.4-0.4 0.2 0 0.4 0.2 0.4 0.4z"/><path class="b" d="m630.8 205.3c0 0.2-0.1 0.4-0.4 0.4-0.2 0-0.4-0.2-0.4-0.4 0-0.3 0.2-0.5 0.4-0.5 0.3 0 0.4 0.2 0.4 0.5z"/><path class="b" d="m592.7 223.4c0 0.2-0.1 0.4-0.4 0.4-0.2 0-0.4-0.2-0.4-0.4 0-0.2 0.2-0.4 0.4-0.4 0.3 0 0.4 0.2 0.4 0.4z"/><path class="b" d="m572.7 203.5c0 0.3-0.2 0.5-0.4 0.5-0.2 0-0.4-0.2-0.4-0.5 0-0.2 0.2-0.4 0.4-0.4 0.2 0 0.4 0.2 0.4 0.4z"/><path class="b" d="m535.8 217.6c0 0.2-0.1 0.4-0.4 0.4-0.2 0-0.4-0.2-0.4-0.4 0-0.2 0.2-0.4 0.4-0.4 0.3 0 0.4 0.2 0.4 0.4z"/><path class="b" d="m496.4 232.5c0 0.2-0.1 0.4-0.4 0.4-0.2 0-0.4-0.2-0.4-0.4 0-0.2 0.2-0.4 0.4-0.4 0.3 0 0.4 0.2 0.4 0.4z"/><path class="b" d="m467.3 200.7c0 0.2-0.2 0.4-0.4 0.4-0.2 0-0.4-0.2-0.4-0.4 0-0.2 0.2-0.4 0.4-0.4 0.2 0 0.4 0.2 0.4 0.4z"/><path class="b" d="m418.3 227.8c0 0.2-0.1 0.4-0.4 0.4-0.2 0-0.4-0.2-0.4-0.4 0-0.2 0.2-0.4 0.4-0.4 0.3 0 0.4 0.2 0.4 0.4z"/><path class="b" d="m389.4 199.9c0 0.2-0.2 0.4-0.4 0.4-0.2 0-0.4-0.2-0.4-0.4 0-0.2 0.2-0.4 0.4-0.4 0.2 0 0.4 0.2 0.4 0.4z"/><path class="b" d="m403.2 218.6c0 0.2-0.1 0.4-0.4 0.4-0.2 0-0.4-0.2-0.4-0.4 0-0.2 0.2-0.4 0.4-0.4 0.3 0 0.4 0.2 0.4 0.4z"/><path class="b" d="m699.8 231.4c0 0.2-0.1 0.4-0.4 0.4-0.2 0-0.4-0.2-0.4-0.4 0-0.3 0.2-0.4 0.4-0.4 0.3 0 0.4 0.1 0.4 0.4z"/><path class="b" d="m734.2 205.3c0 0.2-0.1 0.4-0.4 0.4-0.2 0-0.4-0.2-0.4-0.4 0-0.3 0.2-0.5 0.4-0.5 0.3 0 0.4 0.2 0.4 0.5z"/><path class="b" d="m663.6 215.5c0 0.4-0.4 0.8-0.8 0.8-0.5 0-0.8-0.4-0.8-0.8 0-0.5 0.3-0.8 0.8-0.8 0.4 0 0.8 0.3 0.8 0.8z"/><path class="b" d="m620.9 236.3c0 0.5-0.3 0.8-0.8 0.8-0.4 0-0.8-0.3-0.8-0.8 0-0.4 0.4-0.8 0.8-0.8 0.5 0 0.8 0.4 0.8 0.8z"/></g><g style="opacity:.4"><path class="b" d="m585.2 228.5c0 0.4-0.4 0.8-0.8 0.8-0.5 0-0.8-0.4-0.8-0.8 0-0.5 0.3-0.8 0.8-0.8 0.4 0 0.8 0.3 0.8 0.8z"/><path class="b" d="m641 249.6c0 0.4-0.3 0.8-0.8 0.8-0.4 0-0.8-0.4-0.8-0.8 0-0.5 0.4-0.8 0.8-0.8 0.5 0 0.8 0.3 0.8 0.8z"/><path class="b" d="m830.8 223.9c0 0.4-0.4 0.8-0.8 0.8-0.5 0-0.8-0.4-0.8-0.8 0-0.5 0.3-0.9 0.8-0.9 0.4 0 0.8 0.4 0.8 0.9z"/><path class="b" d="m772 253.4c0 0.2-0.2 0.4-0.4 0.4-0.2 0-0.4-0.2-0.4-0.4 0-0.2 0.2-0.4 0.4-0.4 0.2 0 0.4 0.2 0.4 0.4z"/><path class="b" d="m789.7 227.8c0 0.2-0.2 0.4-0.4 0.4-0.3 0-0.4-0.2-0.4-0.4 0-0.2 0.1-0.4 0.4-0.4 0.2 0 0.4 0.2 0.4 0.4z"/><path class="b" d="m751.6 245.9c0 0.3-0.2 0.4-0.5 0.4-0.2 0-0.4-0.1-0.4-0.4 0-0.2 0.2-0.4 0.4-0.4 0.3 0 0.5 0.2 0.5 0.4z"/><path class="b" d="m731.5 226.1c0 0.2-0.2 0.4-0.4 0.4-0.2 0-0.4-0.2-0.4-0.4 0-0.2 0.2-0.4 0.4-0.4 0.2 0 0.4 0.2 0.4 0.4z"/><path class="b" d="m694.7 240.2c0 0.2-0.2 0.4-0.5 0.4-0.2 0-0.4-0.2-0.4-0.4 0-0.2 0.2-0.4 0.4-0.4 0.3 0 0.5 0.2 0.5 0.4z"/><path class="b" d="m655.3 255.1c0 0.2-0.2 0.4-0.4 0.4-0.3 0-0.5-0.2-0.5-0.4 0-0.3 0.2-0.4 0.5-0.4 0.2 0 0.4 0.1 0.4 0.4z"/><path class="b" d="m626.1 223.3c0 0.2-0.1 0.4-0.4 0.4-0.2 0-0.4-0.2-0.4-0.4 0-0.2 0.2-0.4 0.4-0.4 0.3 0 0.4 0.2 0.4 0.4z"/><path class="b" d="m577.2 250.4c0 0.2-0.2 0.4-0.4 0.4-0.3 0-0.4-0.2-0.4-0.4 0-0.2 0.1-0.4 0.4-0.4 0.2 0 0.4 0.2 0.4 0.4z"/><path class="b" d="m548.2 222.5c0 0.2-0.2 0.4-0.4 0.4-0.2 0-0.4-0.2-0.4-0.4 0-0.2 0.2-0.4 0.4-0.4 0.2 0 0.4 0.2 0.4 0.4z"/><path class="b" d="m562.1 241.1c0 0.3-0.2 0.4-0.4 0.4-0.3 0-0.5-0.1-0.5-0.4 0-0.2 0.2-0.4 0.5-0.4 0.2 0 0.4 0.2 0.4 0.4z"/><path class="b" d="m858.7 253.9c0 0.2-0.2 0.4-0.4 0.4-0.3 0-0.4-0.2-0.4-0.4 0-0.2 0.1-0.4 0.4-0.4 0.2 0 0.4 0.2 0.4 0.4z"/><path class="b" d="m822.4 238c0 0.5-0.4 0.8-0.8 0.8-0.5 0-0.8-0.3-0.8-0.8 0-0.4 0.3-0.8 0.8-0.8 0.4 0 0.8 0.4 0.8 0.8z"/><path class="b" d="m779.8 258.9c0 0.5-0.4 0.8-0.8 0.8-0.5 0-0.9-0.3-0.9-0.8 0-0.4 0.4-0.8 0.9-0.8 0.4 0 0.8 0.4 0.8 0.8z"/></g><g style="opacity:.4"><path class="b" d="m805.9 199.8c0 0.4-0.3 0.8-0.8 0.8-0.4 0-0.8-0.4-0.8-0.8 0-0.5 0.4-0.8 0.8-0.8 0.5 0 0.8 0.3 0.8 0.8z"/><path class="b" d="m861.8 220.9c0 0.4-0.4 0.8-0.8 0.8-0.5 0-0.8-0.4-0.8-0.8 0-0.5 0.3-0.8 0.8-0.8 0.4 0 0.8 0.3 0.8 0.8z"/><path class="b" d="m876 226.3c0 0.3-0.2 0.4-0.4 0.4-0.2 0-0.4-0.1-0.4-0.4 0-0.2 0.2-0.4 0.4-0.4 0.2 0 0.4 0.2 0.4 0.4z"/><path class="b" d="m846.9 194.6c0 0.2-0.2 0.4-0.4 0.4-0.2 0-0.4-0.2-0.4-0.4 0-0.2 0.2-0.4 0.4-0.4 0.2 0 0.4 0.2 0.4 0.4z"/><path class="b" d="m797.9 221.7c0 0.2-0.2 0.4-0.4 0.4-0.2 0-0.4-0.2-0.4-0.4 0-0.2 0.2-0.4 0.4-0.4 0.2 0 0.4 0.2 0.4 0.4z"/><path class="b" d="m769 193.8c0 0.2-0.2 0.4-0.4 0.4-0.2 0-0.4-0.2-0.4-0.4 0-0.2 0.2-0.4 0.4-0.4 0.2 0 0.4 0.2 0.4 0.4z"/><path class="b" d="m782.8 212.4c0 0.3-0.2 0.4-0.4 0.4-0.2 0-0.4-0.1-0.4-0.4 0-0.2 0.2-0.4 0.4-0.4 0.2 0 0.4 0.2 0.4 0.4z"/></g></g><g style="opacity:.4"><path class="b" d="m569.9 124.2c0-0.4 0.4-0.8 0.8-0.8 0.5 0 0.8 0.4 0.8 0.8 0 0.5-0.3 0.8-0.8 0.8-0.4 0-0.8-0.3-0.8-0.8z"/><path class="b" d="m514.1 103.1c0-0.4 0.3-0.8 0.8-0.8 0.4 0 0.8 0.4 0.8 0.8 0 0.5-0.4 0.8-0.8 0.8-0.5 0-0.8-0.3-0.8-0.8z"/><path class="b" d="m324.3 128.8c0-0.4 0.4-0.8 0.8-0.8 0.5 0 0.8 0.4 0.8 0.8 0 0.5-0.3 0.8-0.8 0.8-0.4 0-0.8-0.3-0.8-0.8z"/><path class="b" d="m383.1 99.3c0-0.2 0.1-0.4 0.4-0.4 0.2 0 0.4 0.2 0.4 0.4 0 0.2-0.2 0.4-0.4 0.4-0.3 0-0.4-0.2-0.4-0.4z"/><path class="b" d="m365.4 124.9c0-0.2 0.2-0.4 0.4-0.4 0.3 0 0.4 0.2 0.4 0.4 0 0.2-0.1 0.4-0.4 0.4-0.2 0-0.4-0.2-0.4-0.4z"/><path class="b" d="m403.5 106.8c0-0.3 0.2-0.4 0.4-0.4 0.3 0 0.4 0.1 0.4 0.4 0 0.2-0.1 0.4-0.4 0.4-0.2 0-0.4-0.2-0.4-0.4z"/><path class="b" d="m423.6 126.6c0-0.2 0.1-0.4 0.4-0.4 0.2 0 0.4 0.2 0.4 0.4 0 0.2-0.2 0.4-0.4 0.4-0.3 0-0.4-0.2-0.4-0.4z"/><path class="b" d="m460.4 112.5c0-0.2 0.2-0.4 0.4-0.4 0.3 0 0.4 0.2 0.4 0.4 0 0.2-0.1 0.4-0.4 0.4-0.2 0-0.4-0.2-0.4-0.4z"/><path class="b" d="m499.8 97.6c0-0.2 0.2-0.4 0.4-0.4 0.3 0 0.4 0.2 0.4 0.4 0 0.3-0.1 0.4-0.4 0.4-0.2 0-0.4-0.1-0.4-0.4z"/><path class="b" d="m529 129.4c0-0.2 0.1-0.4 0.4-0.4 0.2 0 0.4 0.2 0.4 0.4 0 0.2-0.2 0.4-0.4 0.4-0.3 0-0.4-0.2-0.4-0.4z"/><path class="b" d="m577.9 102.3c0-0.2 0.2-0.4 0.4-0.4 0.3 0 0.4 0.2 0.4 0.4 0 0.2-0.1 0.4-0.4 0.4-0.2 0-0.4-0.2-0.4-0.4z"/><path class="b" d="m606.9 130.2c0-0.2 0.2-0.4 0.4-0.4 0.2 0 0.4 0.2 0.4 0.4 0 0.2-0.2 0.4-0.4 0.4-0.2 0-0.4-0.2-0.4-0.4z"/><path class="b" d="m593 111.6c0-0.3 0.2-0.4 0.4-0.4 0.3 0 0.4 0.1 0.4 0.4 0 0.2-0.1 0.4-0.4 0.4-0.2 0-0.4-0.2-0.4-0.4z"/><path class="b" d="m296.4 98.8c0-0.2 0.2-0.4 0.4-0.4 0.3 0 0.4 0.2 0.4 0.4 0 0.2-0.1 0.4-0.4 0.4-0.2 0-0.4-0.2-0.4-0.4z"/><path class="b" d="m262 124.9c0-0.2 0.2-0.4 0.4-0.4 0.3 0 0.4 0.2 0.4 0.4 0 0.2-0.1 0.4-0.4 0.4-0.2 0-0.4-0.2-0.4-0.4z"/><path class="b" d="m332.7 114.7c0-0.5 0.4-0.8 0.8-0.8 0.5 0 0.8 0.3 0.8 0.8 0 0.4-0.3 0.8-0.8 0.8-0.4 0-0.8-0.4-0.8-0.8z"/><path class="b" d="m375.3 93.8c0-0.5 0.4-0.8 0.8-0.8 0.5 0 0.8 0.3 0.8 0.8 0 0.4-0.3 0.8-0.8 0.8-0.4 0-0.8-0.4-0.8-0.8z"/></g><g style="opacity:.4"><path class="b" d="m706.5 86.5c0-0.5 0.4-0.8 0.8-0.8 0.5 0 0.8 0.3 0.8 0.8 0 0.4-0.3 0.8-0.8 0.8-0.4 0-0.8-0.4-0.8-0.8z"/><path class="b" d="m650.7 65.4c0-0.5 0.3-0.8 0.8-0.8 0.4 0 0.8 0.3 0.8 0.8 0 0.4-0.4 0.8-0.8 0.8-0.5 0-0.8-0.4-0.8-0.8z"/><path class="b" d="m460.9 91.1c0-0.4 0.4-0.8 0.8-0.8 0.5 0 0.8 0.4 0.8 0.8 0 0.5-0.3 0.8-0.8 0.8-0.4 0-0.8-0.3-0.8-0.8z"/><path class="b" d="m519.7 61.6c0-0.3 0.1-0.4 0.4-0.4 0.2 0 0.4 0.1 0.4 0.4 0 0.2-0.2 0.4-0.4 0.4-0.3 0-0.4-0.2-0.4-0.4z"/><path class="b" d="m502 87.1c0-0.2 0.2-0.4 0.4-0.4 0.2 0 0.4 0.2 0.4 0.4 0 0.3-0.2 0.4-0.4 0.4-0.2 0-0.4-0.1-0.4-0.4z"/><path class="b" d="m540.1 69c0-0.2 0.2-0.4 0.4-0.4 0.3 0 0.4 0.2 0.4 0.4 0 0.2-0.1 0.4-0.4 0.4-0.2 0-0.4-0.2-0.4-0.4z"/><path class="b" d="m560.1 88.8c0-0.2 0.2-0.4 0.5-0.4 0.2 0 0.4 0.2 0.4 0.4 0 0.3-0.2 0.4-0.4 0.4-0.3 0-0.5-0.1-0.5-0.4z"/><path class="b" d="m597 74.8c0-0.2 0.2-0.4 0.4-0.4 0.2 0 0.4 0.2 0.4 0.4 0 0.2-0.2 0.4-0.4 0.4-0.2 0-0.4-0.2-0.4-0.4z"/><path class="b" d="m636.4 59.9c0-0.2 0.2-0.4 0.4-0.4 0.2 0 0.4 0.2 0.4 0.4 0 0.2-0.2 0.4-0.4 0.4-0.2 0-0.4-0.2-0.4-0.4z"/><path class="b" d="m665.5 91.7c0-0.2 0.2-0.4 0.4-0.4 0.3 0 0.4 0.2 0.4 0.4 0 0.2-0.1 0.4-0.4 0.4-0.2 0-0.4-0.2-0.4-0.4z"/><path class="b" d="m714.5 64.6c0-0.2 0.2-0.4 0.4-0.4 0.2 0 0.4 0.2 0.4 0.4 0 0.2-0.2 0.4-0.4 0.4-0.2 0-0.4-0.2-0.4-0.4z"/><path class="b" d="m743.5 92.5c0-0.2 0.1-0.4 0.4-0.4 0.2 0 0.4 0.2 0.4 0.4 0 0.2-0.2 0.4-0.4 0.4-0.3 0-0.4-0.2-0.4-0.4z"/><path class="b" d="m729.6 73.8c0-0.2 0.2-0.4 0.4-0.4 0.2 0 0.4 0.2 0.4 0.4 0 0.2-0.2 0.4-0.4 0.4-0.2 0-0.4-0.2-0.4-0.4z"/><path class="b" d="m433 61c0-0.2 0.2-0.4 0.4-0.4 0.2 0 0.4 0.2 0.4 0.4 0 0.3-0.2 0.4-0.4 0.4-0.2 0-0.4-0.1-0.4-0.4z"/><path class="b" d="m398.6 87.1c0-0.2 0.2-0.4 0.4-0.4 0.2 0 0.4 0.2 0.4 0.4 0 0.3-0.2 0.4-0.4 0.4-0.2 0-0.4-0.1-0.4-0.4z"/><path class="b" d="m469.3 76.9c0-0.4 0.4-0.8 0.8-0.8 0.5 0 0.8 0.4 0.8 0.8 0 0.5-0.3 0.8-0.8 0.8-0.4 0-0.8-0.3-0.8-0.8z"/><path class="b" d="m511.9 56.1c0-0.5 0.4-0.9 0.8-0.9 0.5 0 0.8 0.4 0.8 0.9 0 0.4-0.3 0.8-0.8 0.8-0.4 0-0.8-0.4-0.8-0.8z"/></g><g style="opacity:.4"><path class="b" d="m426.4 136.9c0-0.4 0.4-0.8 0.8-0.8 0.4 0 0.8 0.4 0.8 0.8 0 0.4-0.4 0.8-0.8 0.8-0.4 0-0.8-0.4-0.8-0.8z"/><path class="b" d="m370.6 115.8c0-0.5 0.3-0.8 0.8-0.8 0.4 0 0.8 0.3 0.8 0.8 0 0.4-0.4 0.8-0.8 0.8-0.5 0-0.8-0.4-0.8-0.8z"/><path class="b" d="m180.8 141.5c0-0.4 0.4-0.8 0.8-0.8 0.5 0 0.8 0.4 0.8 0.8 0 0.5-0.3 0.8-0.8 0.8-0.4 0-0.8-0.3-0.8-0.8z"/><path class="b" d="m239.6 112c0-0.2 0.1-0.4 0.4-0.4 0.2 0 0.4 0.2 0.4 0.4 0 0.2-0.2 0.4-0.4 0.4-0.3 0-0.4-0.2-0.4-0.4z"/><path class="b" d="m221.9 137.6c0-0.3 0.2-0.4 0.4-0.4 0.2 0 0.4 0.1 0.4 0.4 0 0.2-0.2 0.4-0.4 0.4-0.2 0-0.4-0.2-0.4-0.4z"/><path class="b" d="m260 119.4c0-0.2 0.2-0.4 0.4-0.4 0.2 0 0.4 0.2 0.4 0.4 0 0.3-0.2 0.4-0.4 0.4-0.2 0-0.4-0.1-0.4-0.4z"/><path class="b" d="m280 139.3c0-0.3 0.2-0.4 0.4-0.4 0.3 0 0.4 0.1 0.4 0.4 0 0.2-0.1 0.4-0.4 0.4-0.2 0-0.4-0.2-0.4-0.4z"/><path class="b" d="m316.9 125.2c0-0.2 0.2-0.4 0.4-0.4 0.2 0 0.4 0.2 0.4 0.4 0 0.2-0.2 0.4-0.4 0.4-0.2 0-0.4-0.2-0.4-0.4z"/><path class="b" d="m356.3 110.3c0-0.2 0.2-0.4 0.4-0.4 0.2 0 0.4 0.2 0.4 0.4 0 0.2-0.2 0.4-0.4 0.4-0.2 0-0.4-0.2-0.4-0.4z"/><path class="b" d="m385.4 142.1c0-0.2 0.2-0.4 0.4-0.4 0.3 0 0.4 0.2 0.4 0.4 0 0.2-0.1 0.4-0.4 0.4-0.2 0-0.4-0.2-0.4-0.4z"/><path class="b" d="m434.4 115c0-0.2 0.2-0.4 0.4-0.4 0.2 0 0.4 0.2 0.4 0.4 0 0.2-0.2 0.4-0.4 0.4-0.2 0-0.4-0.2-0.4-0.4z"/><path class="b" d="m463.4 142.9c0-0.2 0.1-0.4 0.4-0.4 0.2 0 0.4 0.2 0.4 0.4 0 0.2-0.2 0.4-0.4 0.4-0.3 0-0.4-0.2-0.4-0.4z"/><path class="b" d="m449.5 124.2c0-0.2 0.2-0.4 0.4-0.4 0.2 0 0.4 0.2 0.4 0.4 0 0.3-0.2 0.4-0.4 0.4-0.2 0-0.4-0.1-0.4-0.4z"/><path class="b" d="m152.9 111.5c0-0.3 0.2-0.5 0.4-0.5 0.2 0 0.4 0.2 0.4 0.5 0 0.2-0.2 0.4-0.4 0.4-0.2 0-0.4-0.2-0.4-0.4z"/><path class="b" d="m118.5 137.6c0-0.3 0.2-0.4 0.4-0.4 0.2 0 0.4 0.1 0.4 0.4 0 0.2-0.2 0.4-0.4 0.4-0.2 0-0.4-0.2-0.4-0.4z"/><path class="b" d="m189.2 127.3c0-0.4 0.4-0.8 0.8-0.8 0.4 0 0.8 0.4 0.8 0.8 0 0.5-0.4 0.9-0.8 0.9-0.4 0-0.8-0.4-0.8-0.9z"/><path class="b" d="m231.8 106.5c0-0.5 0.4-0.8 0.8-0.8 0.5 0 0.8 0.3 0.8 0.8 0 0.4-0.3 0.8-0.8 0.8-0.4 0-0.8-0.4-0.8-0.8z"/></g><g style="opacity:.4"><path class="b" d="m267.6 114.3c0-0.4 0.3-0.8 0.8-0.8 0.4 0 0.8 0.4 0.8 0.8 0 0.5-0.4 0.8-0.8 0.8-0.5 0-0.8-0.3-0.8-0.8z"/><path class="b" d="m211.7 93.2c0-0.4 0.4-0.8 0.8-0.8 0.5 0 0.9 0.4 0.9 0.8 0 0.5-0.4 0.8-0.9 0.8-0.4 0-0.8-0.3-0.8-0.8z"/><path class="b" d="m22 119c0-0.5 0.3-0.9 0.8-0.9 0.4 0 0.8 0.4 0.8 0.9 0 0.4-0.4 0.8-0.8 0.8-0.5 0-0.8-0.4-0.8-0.8z"/><path class="b" d="m80.7 89.4c0-0.2 0.2-0.4 0.4-0.4 0.3 0 0.4 0.2 0.4 0.4 0 0.2-0.1 0.4-0.4 0.4-0.2 0-0.4-0.2-0.4-0.4z"/><path class="b" d="m63.1 115c0-0.2 0.2-0.4 0.4-0.4 0.2 0 0.4 0.2 0.4 0.4 0 0.2-0.2 0.4-0.4 0.4-0.2 0-0.4-0.2-0.4-0.4z"/><path class="b" d="m101.2 96.9c0-0.3 0.2-0.4 0.4-0.4 0.2 0 0.4 0.1 0.4 0.4 0 0.2-0.2 0.4-0.4 0.4-0.2 0-0.4-0.2-0.4-0.4z"/><path class="b" d="m121.2 116.7c0-0.2 0.2-0.4 0.4-0.4 0.3 0 0.4 0.2 0.4 0.4 0 0.2-0.1 0.4-0.4 0.4-0.2 0-0.4-0.2-0.4-0.4z"/><path class="b" d="m158.1 102.6c0-0.2 0.2-0.4 0.4-0.4 0.2 0 0.4 0.2 0.4 0.4 0 0.2-0.2 0.4-0.4 0.4-0.2 0-0.4-0.2-0.4-0.4z"/><path class="b" d="m197.5 87.8c0-0.3 0.2-0.4 0.4-0.4 0.2 0 0.4 0.1 0.4 0.4 0 0.2-0.2 0.4-0.4 0.4-0.2 0-0.4-0.2-0.4-0.4z"/><path class="b" d="m226.6 119.5c0-0.2 0.2-0.4 0.4-0.4 0.2 0 0.4 0.2 0.4 0.4 0 0.2-0.2 0.4-0.4 0.4-0.2 0-0.4-0.2-0.4-0.4z"/><path class="b" d="m275.6 92.4c0-0.2 0.2-0.4 0.4-0.4 0.2 0 0.4 0.2 0.4 0.4 0 0.2-0.2 0.4-0.4 0.4-0.2 0-0.4-0.2-0.4-0.4z"/><path class="b" d="m304.5 120.3c0-0.2 0.2-0.4 0.4-0.4 0.3 0 0.5 0.2 0.5 0.4 0 0.2-0.2 0.4-0.5 0.4-0.2 0-0.4-0.2-0.4-0.4z"/><path class="b" d="m290.7 101.7c0-0.3 0.2-0.4 0.4-0.4 0.2 0 0.4 0.1 0.4 0.4 0 0.2-0.2 0.4-0.4 0.4-0.2 0-0.4-0.2-0.4-0.4z"/><path class="b" d="m-5.9 88.9c0-0.2 0.2-0.4 0.4-0.4 0.2 0 0.4 0.2 0.4 0.4 0 0.2-0.2 0.4-0.4 0.4-0.2 0-0.4-0.2-0.4-0.4z"/><path class="b" d="m30.4 104.8c0-0.5 0.3-0.8 0.8-0.8 0.4 0 0.8 0.3 0.8 0.8 0 0.4-0.4 0.8-0.8 0.8-0.5 0-0.8-0.4-0.8-0.8z"/><path class="b" d="m73 83.9c0-0.4 0.4-0.8 0.8-0.8 0.4 0 0.8 0.4 0.8 0.8 0 0.4-0.4 0.8-0.8 0.8-0.4 0-0.8-0.4-0.8-0.8z"/></g><g style="opacity:.4"><path class="b" d="m-9 121.9c0-0.4 0.3-0.8 0.8-0.8 0.4 0 0.8 0.4 0.8 0.8 0 0.5-0.4 0.8-0.8 0.8-0.5 0-0.8-0.3-0.8-0.8z"/><path class="b" d="m-23.3 116.5c0-0.3 0.2-0.4 0.4-0.4 0.3 0 0.4 0.1 0.4 0.4 0 0.2-0.1 0.4-0.4 0.4-0.2 0-0.4-0.2-0.4-0.4z"/><path class="b" d="m5.9 148.2c0-0.2 0.1-0.4 0.4-0.4 0.2 0 0.4 0.2 0.4 0.4 0 0.2-0.2 0.4-0.4 0.4-0.3 0-0.4-0.2-0.4-0.4z"/><path class="b" d="m54.8 121.1c0-0.2 0.2-0.4 0.4-0.4 0.3 0 0.4 0.2 0.4 0.4 0 0.3-0.1 0.4-0.4 0.4-0.2 0-0.4-0.1-0.4-0.4z"/><path class="b" d="m83.8 149c0-0.2 0.2-0.4 0.4-0.4 0.2 0 0.4 0.2 0.4 0.4 0 0.3-0.2 0.4-0.4 0.4-0.2 0-0.4-0.1-0.4-0.4z"/></g><g style="opacity:.7"><g style="opacity:.4"><path class="b" d="m227.9 158.5c0 0.5-0.4 0.8-0.8 0.8-0.5 0-0.8-0.3-0.8-0.8 0-0.4 0.3-0.8 0.8-0.8 0.4 0 0.8 0.4 0.8 0.8z"/><path class="b" d="m283.7 179.6c0 0.5-0.3 0.8-0.8 0.8-0.4 0-0.8-0.3-0.8-0.8 0-0.4 0.4-0.8 0.8-0.8 0.5 0 0.8 0.4 0.8 0.8z"/><path class="b" d="m473.5 153.9c0 0.4-0.4 0.8-0.8 0.8-0.5 0-0.8-0.4-0.8-0.8 0-0.5 0.3-0.8 0.8-0.8 0.4 0 0.8 0.3 0.8 0.8z"/><path class="b" d="m414.7 183.4c0 0.2-0.1 0.4-0.4 0.4-0.2 0-0.4-0.2-0.4-0.4 0-0.2 0.2-0.4 0.4-0.4 0.3 0 0.4 0.2 0.4 0.4z"/><path class="b" d="m432.4 157.9c0 0.2-0.2 0.4-0.4 0.4-0.2 0-0.4-0.2-0.4-0.4 0-0.3 0.2-0.4 0.4-0.4 0.2 0 0.4 0.1 0.4 0.4z"/><path class="b" d="m394.3 176c0 0.2-0.2 0.4-0.4 0.4-0.3 0-0.4-0.2-0.4-0.4 0-0.2 0.1-0.4 0.4-0.4 0.2 0 0.4 0.2 0.4 0.4z"/><path class="b" d="m374.2 156.2c0 0.2-0.1 0.4-0.4 0.4-0.2 0-0.4-0.2-0.4-0.4 0-0.3 0.2-0.4 0.4-0.4 0.3 0 0.4 0.1 0.4 0.4z"/><path class="b" d="m337.4 170.2c0 0.2-0.2 0.4-0.4 0.4-0.3 0-0.4-0.2-0.4-0.4 0-0.2 0.1-0.4 0.4-0.4 0.2 0 0.4 0.2 0.4 0.4z"/><path class="b" d="m298 185.1c0 0.2-0.2 0.4-0.4 0.4-0.3 0-0.4-0.2-0.4-0.4 0-0.2 0.1-0.4 0.4-0.4 0.2 0 0.4 0.2 0.4 0.4z"/><path class="b" d="m268.9 153.3c0 0.2-0.2 0.4-0.4 0.4-0.3 0-0.4-0.2-0.4-0.4 0-0.2 0.1-0.4 0.4-0.4 0.2 0 0.4 0.2 0.4 0.4z"/><path class="b" d="m219.9 180.4c0 0.2-0.2 0.4-0.4 0.4-0.2 0-0.4-0.2-0.4-0.4 0-0.2 0.2-0.4 0.4-0.4 0.2 0 0.4 0.2 0.4 0.4z"/><path class="b" d="m190.9 152.5c0 0.2-0.2 0.4-0.4 0.4-0.2 0-0.4-0.2-0.4-0.4 0-0.2 0.2-0.4 0.4-0.4 0.2 0 0.4 0.2 0.4 0.4z"/><path class="b" d="m204.8 171.2c0 0.2-0.2 0.4-0.4 0.4-0.3 0-0.4-0.2-0.4-0.4 0-0.2 0.1-0.4 0.4-0.4 0.2 0 0.4 0.2 0.4 0.4z"/><path class="b" d="m501.4 184c0 0.2-0.2 0.4-0.4 0.4-0.3 0-0.4-0.2-0.4-0.4 0-0.3 0.1-0.4 0.4-0.4 0.2 0 0.4 0.1 0.4 0.4z"/><path class="b" d="m535.8 157.9c0 0.2-0.2 0.4-0.4 0.4-0.3 0-0.4-0.2-0.4-0.4 0-0.3 0.1-0.4 0.4-0.4 0.2 0 0.4 0.1 0.4 0.4z"/><path class="b" d="m465.1 168.1c0 0.4-0.4 0.8-0.8 0.8-0.5 0-0.8-0.4-0.8-0.8 0-0.5 0.3-0.8 0.8-0.8 0.4 0 0.8 0.3 0.8 0.8z"/><path class="b" d="m422.5 188.9c0 0.5-0.4 0.8-0.8 0.8-0.5 0-0.8-0.3-0.8-0.8 0-0.4 0.3-0.8 0.8-0.8 0.4 0 0.8 0.4 0.8 0.8z"/></g><g style="opacity:.4"><path class="b" d="m91.3 196.2c0 0.5-0.4 0.8-0.8 0.8-0.4 0-0.8-0.3-0.8-0.8 0-0.4 0.4-0.8 0.8-0.8 0.4 0 0.8 0.4 0.8 0.8z"/><path class="b" d="m147.1 217.4c0 0.4-0.3 0.8-0.8 0.8-0.4 0-0.8-0.4-0.8-0.8 0-0.5 0.4-0.8 0.8-0.8 0.5 0 0.8 0.3 0.8 0.8z"/><path class="b" d="m336.9 191.6c0 0.5-0.4 0.8-0.8 0.8-0.4 0-0.8-0.3-0.8-0.8 0-0.4 0.4-0.8 0.8-0.8 0.4 0 0.8 0.4 0.8 0.8z"/><path class="b" d="m278.2 221.2c0 0.2-0.2 0.4-0.4 0.4-0.3 0-0.4-0.2-0.4-0.4 0-0.3 0.1-0.4 0.4-0.4 0.2 0 0.4 0.1 0.4 0.4z"/><path class="b" d="m295.8 195.6c0 0.2-0.2 0.4-0.4 0.4-0.2 0-0.4-0.2-0.4-0.4 0-0.2 0.2-0.4 0.4-0.4 0.2 0 0.4 0.2 0.4 0.4z"/><path class="b" d="m257.7 213.7c0 0.2-0.2 0.4-0.4 0.4-0.2 0-0.4-0.2-0.4-0.4 0-0.2 0.2-0.4 0.4-0.4 0.2 0 0.4 0.2 0.4 0.4z"/><path class="b" d="m237.7 193.9c0 0.2-0.2 0.4-0.4 0.4-0.3 0-0.4-0.2-0.4-0.4 0-0.2 0.1-0.4 0.4-0.4 0.2 0 0.4 0.2 0.4 0.4z"/><path class="b" d="m200.8 208c0 0.2-0.2 0.4-0.4 0.4-0.2 0-0.4-0.2-0.4-0.4 0-0.3 0.2-0.4 0.4-0.4 0.2 0 0.4 0.1 0.4 0.4z"/><path class="b" d="m161.4 222.8c0 0.3-0.2 0.4-0.4 0.4-0.2 0-0.4-0.1-0.4-0.4 0-0.2 0.2-0.4 0.4-0.4 0.2 0 0.4 0.2 0.4 0.4z"/><path class="b" d="m132.3 191.1c0 0.2-0.2 0.4-0.4 0.4-0.3 0-0.4-0.2-0.4-0.4 0-0.3 0.1-0.4 0.4-0.4 0.2 0 0.4 0.1 0.4 0.4z"/><path class="b" d="m83.3 218.2c0 0.2-0.2 0.4-0.4 0.4-0.2 0-0.4-0.2-0.4-0.4 0-0.3 0.2-0.4 0.4-0.4 0.2 0 0.4 0.1 0.4 0.4z"/><path class="b" d="m54.3 190.3c0 0.2-0.1 0.4-0.4 0.4-0.2 0-0.4-0.2-0.4-0.4 0-0.3 0.2-0.4 0.4-0.4 0.3 0 0.4 0.1 0.4 0.4z"/><path class="b" d="m68.2 208.9c0 0.2-0.2 0.4-0.4 0.4-0.2 0-0.4-0.2-0.4-0.4 0-0.2 0.2-0.4 0.4-0.4 0.2 0 0.4 0.2 0.4 0.4z"/><path class="b" d="m364.8 221.7c0 0.2-0.2 0.4-0.4 0.4-0.2 0-0.4-0.2-0.4-0.4 0-0.2 0.2-0.4 0.4-0.4 0.2 0 0.4 0.2 0.4 0.4z"/><path class="b" d="m399.2 195.6c0 0.2-0.2 0.4-0.4 0.4-0.2 0-0.4-0.2-0.4-0.4 0-0.2 0.2-0.4 0.4-0.4 0.2 0 0.4 0.2 0.4 0.4z"/><path class="b" d="m328.5 205.8c0 0.4-0.4 0.8-0.8 0.8-0.4 0-0.8-0.4-0.8-0.8 0-0.4 0.4-0.8 0.8-0.8 0.4 0 0.8 0.4 0.8 0.8z"/><path class="b" d="m285.9 226.7c0 0.4-0.4 0.8-0.8 0.8-0.5 0-0.8-0.4-0.8-0.8 0-0.5 0.3-0.8 0.8-0.8 0.4 0 0.8 0.3 0.8 0.8z"/></g><g style="opacity:.4"><path class="b" d="m371.4 145.8c0 0.5-0.4 0.8-0.8 0.8-0.4 0-0.8-0.3-0.8-0.8 0-0.4 0.4-0.8 0.8-0.8 0.4 0 0.8 0.4 0.8 0.8z"/><path class="b" d="m427.2 166.9c0 0.5-0.3 0.8-0.8 0.8-0.4 0-0.8-0.3-0.8-0.8 0-0.4 0.4-0.8 0.8-0.8 0.5 0 0.8 0.4 0.8 0.8z"/><path class="b" d="m617 141.2c0 0.5-0.4 0.8-0.8 0.8-0.4 0-0.8-0.3-0.8-0.8 0-0.4 0.4-0.8 0.8-0.8 0.4 0 0.8 0.4 0.8 0.8z"/><path class="b" d="m558.3 170.8c0 0.2-0.2 0.4-0.4 0.4-0.3 0-0.4-0.2-0.4-0.4 0-0.3 0.1-0.4 0.4-0.4 0.2 0 0.4 0.1 0.4 0.4z"/><path class="b" d="m575.9 145.2c0 0.2-0.2 0.4-0.4 0.4-0.2 0-0.4-0.2-0.4-0.4 0-0.2 0.2-0.4 0.4-0.4 0.2 0 0.4 0.2 0.4 0.4z"/><path class="b" d="m537.8 163.3c0 0.2-0.2 0.4-0.4 0.4-0.2 0-0.4-0.2-0.4-0.4 0-0.2 0.2-0.4 0.4-0.4 0.2 0 0.4 0.2 0.4 0.4z"/><path class="b" d="m517.8 143.5c0 0.2-0.2 0.4-0.4 0.4-0.3 0-0.4-0.2-0.4-0.4 0-0.2 0.1-0.4 0.4-0.4 0.2 0 0.4 0.2 0.4 0.4z"/><path class="b" d="m480.9 157.5c0 0.3-0.2 0.4-0.4 0.4-0.2 0-0.4-0.1-0.4-0.4 0-0.2 0.2-0.4 0.4-0.4 0.2 0 0.4 0.2 0.4 0.4z"/><path class="b" d="m441.5 172.4c0 0.2-0.2 0.4-0.4 0.4-0.2 0-0.4-0.2-0.4-0.4 0-0.2 0.2-0.4 0.4-0.4 0.2 0 0.4 0.2 0.4 0.4z"/><path class="b" d="m412.4 140.6c0 0.3-0.2 0.5-0.4 0.5-0.3 0-0.4-0.2-0.4-0.5 0-0.2 0.1-0.4 0.4-0.4 0.2 0 0.4 0.2 0.4 0.4z"/><path class="b" d="m363.4 167.7c0 0.3-0.2 0.5-0.4 0.5-0.2 0-0.4-0.2-0.4-0.5 0-0.2 0.2-0.4 0.4-0.4 0.2 0 0.4 0.2 0.4 0.4z"/><path class="b" d="m334.4 139.8c0 0.3-0.1 0.4-0.4 0.4-0.2 0-0.4-0.1-0.4-0.4 0-0.2 0.2-0.4 0.4-0.4 0.3 0 0.4 0.2 0.4 0.4z"/><path class="b" d="m348.3 158.5c0 0.2-0.2 0.4-0.4 0.4-0.2 0-0.4-0.2-0.4-0.4 0-0.2 0.2-0.4 0.4-0.4 0.2 0 0.4 0.2 0.4 0.4z"/><path class="b" d="m644.9 171.3c0 0.2-0.2 0.4-0.4 0.4-0.2 0-0.4-0.2-0.4-0.4 0-0.2 0.2-0.4 0.4-0.4 0.2 0 0.4 0.2 0.4 0.4z"/><path class="b" d="m679.3 145.2c0 0.2-0.2 0.4-0.4 0.4-0.2 0-0.4-0.2-0.4-0.4 0-0.2 0.2-0.4 0.4-0.4 0.2 0 0.4 0.2 0.4 0.4z"/><path class="b" d="m608.6 155.4c0 0.4-0.3 0.8-0.8 0.8-0.4 0-0.8-0.4-0.8-0.8 0-0.5 0.4-0.8 0.8-0.8 0.5 0 0.8 0.3 0.8 0.8z"/><path class="b" d="m566 176.3c0 0.4-0.4 0.8-0.8 0.8-0.5 0-0.8-0.4-0.8-0.8 0-0.5 0.3-0.8 0.8-0.8 0.4 0 0.8 0.3 0.8 0.8z"/></g><g style="opacity:.4"><path class="b" d="m530.2 168.4c0 0.4-0.3 0.8-0.8 0.8-0.4 0-0.8-0.4-0.8-0.8 0-0.4 0.4-0.8 0.8-0.8 0.5 0 0.8 0.4 0.8 0.8z"/><path class="b" d="m586.1 189.5c0 0.5-0.4 0.8-0.8 0.8-0.5 0-0.8-0.3-0.8-0.8 0-0.4 0.3-0.8 0.8-0.8 0.4 0 0.8 0.4 0.8 0.8z"/><path class="b" d="m775.8 163.8c0 0.4-0.3 0.8-0.8 0.8-0.4 0-0.8-0.4-0.8-0.8 0-0.5 0.4-0.8 0.8-0.8 0.5 0 0.8 0.3 0.8 0.8z"/><path class="b" d="m717.1 193.3c0 0.2-0.2 0.4-0.4 0.4-0.3 0-0.4-0.2-0.4-0.4 0-0.2 0.1-0.4 0.4-0.4 0.2 0 0.4 0.2 0.4 0.4z"/><path class="b" d="m734.7 167.7c0 0.3-0.2 0.5-0.4 0.5-0.2 0-0.4-0.2-0.4-0.5 0-0.2 0.2-0.4 0.4-0.4 0.2 0 0.4 0.2 0.4 0.4z"/><path class="b" d="m696.6 185.9c0 0.2-0.2 0.4-0.4 0.4-0.2 0-0.4-0.2-0.4-0.4 0-0.2 0.2-0.4 0.4-0.4 0.2 0 0.4 0.2 0.4 0.4z"/><path class="b" d="m676.6 166c0 0.3-0.2 0.4-0.4 0.4-0.2 0-0.4-0.1-0.4-0.4 0-0.2 0.2-0.4 0.4-0.4 0.2 0 0.4 0.2 0.4 0.4z"/><path class="b" d="m639.7 180.1c0 0.2-0.2 0.4-0.4 0.4-0.2 0-0.4-0.2-0.4-0.4 0-0.2 0.2-0.4 0.4-0.4 0.2 0 0.4 0.2 0.4 0.4z"/><path class="b" d="m600.3 195c0 0.2-0.2 0.4-0.4 0.4-0.2 0-0.4-0.2-0.4-0.4 0-0.2 0.2-0.4 0.4-0.4 0.2 0 0.4 0.2 0.4 0.4z"/><path class="b" d="m571.2 163.2c0 0.2-0.2 0.4-0.4 0.4-0.2 0-0.4-0.2-0.4-0.4 0-0.2 0.2-0.4 0.4-0.4 0.2 0 0.4 0.2 0.4 0.4z"/><path class="b" d="m522.2 190.3c0 0.2-0.2 0.4-0.4 0.4-0.2 0-0.4-0.2-0.4-0.4 0-0.2 0.2-0.4 0.4-0.4 0.2 0 0.4 0.2 0.4 0.4z"/><path class="b" d="m493.3 162.4c0 0.2-0.2 0.4-0.4 0.4-0.3 0-0.4-0.2-0.4-0.4 0-0.2 0.1-0.4 0.4-0.4 0.2 0 0.4 0.2 0.4 0.4z"/><path class="b" d="m507.1 181.1c0 0.2-0.2 0.4-0.4 0.4-0.2 0-0.4-0.2-0.4-0.4 0-0.3 0.2-0.4 0.4-0.4 0.2 0 0.4 0.1 0.4 0.4z"/><path class="b" d="m803.7 193.9c0 0.2-0.2 0.4-0.4 0.4-0.2 0-0.4-0.2-0.4-0.4 0-0.3 0.2-0.5 0.4-0.5 0.2 0 0.4 0.2 0.4 0.5z"/><path class="b" d="m767.4 178c0 0.4-0.3 0.8-0.8 0.8-0.4 0-0.8-0.4-0.8-0.8 0-0.5 0.4-0.8 0.8-0.8 0.5 0 0.8 0.3 0.8 0.8z"/><path class="b" d="m724.8 198.8c0 0.5-0.4 0.8-0.8 0.8-0.4 0-0.8-0.3-0.8-0.8 0-0.4 0.4-0.8 0.8-0.8 0.4 0 0.8 0.4 0.8 0.8z"/></g><g style="opacity:.4"><path class="b" d="m751 139.7c0 0.4-0.4 0.8-0.8 0.8-0.5 0-0.8-0.4-0.8-0.8 0-0.5 0.3-0.8 0.8-0.8 0.4 0 0.8 0.3 0.8 0.8z"/><path class="b" d="m806.8 160.8c0 0.4-0.3 0.8-0.8 0.8-0.4 0-0.8-0.4-0.8-0.8 0-0.4 0.4-0.8 0.8-0.8 0.5 0 0.8 0.4 0.8 0.8z"/><path class="b" d="m821.1 166.3c0 0.2-0.2 0.4-0.4 0.4-0.2 0-0.4-0.2-0.4-0.4 0-0.2 0.2-0.4 0.4-0.4 0.2 0 0.4 0.2 0.4 0.4z"/><path class="b" d="m792 134.5c0 0.2-0.2 0.4-0.4 0.4-0.3 0-0.4-0.2-0.4-0.4 0-0.2 0.1-0.4 0.4-0.4 0.2 0 0.4 0.2 0.4 0.4z"/><path class="b" d="m743 161.6c0 0.2-0.2 0.4-0.4 0.4-0.2 0-0.4-0.2-0.4-0.4 0-0.2 0.2-0.4 0.4-0.4 0.2 0 0.4 0.2 0.4 0.4z"/><path class="b" d="m714 133.7c0 0.2-0.1 0.4-0.4 0.4-0.2 0-0.4-0.2-0.4-0.4 0-0.2 0.2-0.4 0.4-0.4 0.3 0 0.4 0.2 0.4 0.4z"/><path class="b" d="m727.9 152.4c0 0.2-0.2 0.4-0.4 0.4-0.2 0-0.4-0.2-0.4-0.4 0-0.3 0.2-0.4 0.4-0.4 0.2 0 0.4 0.1 0.4 0.4z"/></g></g><path class="c" d="m151.4 215.3c-5-23 144.6-85.1 174.3-70.7q29.7 14.5-30 29.5c85.3-36.3-64.5-3.4-86.9 22.1q-22.5 25.5 103.6-5.4-156 47.6-161 24.5z"/><path class="d" d="m551.6 155.4q58.2 11.2-85.1 80.2 122.1-35.6 219-40.5 97-4.9-35.7 49.9c72.6-15.3 72.4-0.3 88.8 3.8q16.5 4.1 19.8-14.4l36.2 14.4q-64.3 10.7-96.8 0-32.4-10.6-98.6 13.6 101.7-39.8 46.8-41.2-54.9-1.5-206.7 24.5 122.5-71.7-29.8-54.7-152.3 16.9-262.7 82.4c139.1-78 346.5-129.3 404.8-118z"/><path class="e" d="m277.6 138.5q-129.8 33.9-176 65.5c-46.1 31.7-11.8-94.2 126.7-89.8q138.6 4.4-71.8 39 73.8-23.3 54.8-30.2c-18.9-6.9-74.1 8.5-109 55.1-35 46.6 66.1-21.2 175.3-39.6z"/><g style="mix-blend-mode:soft-light"></g><g style="mix-blend-mode:soft-light"><path class="f" d="m404.4 373.1c1.6 0 2.7-0.1 3-0.2 1.1-0.3-2-0.8-6.4-1.3q1.8 0.1 3.7 0.2c3.5 0.5 5.8 0.9 4.9 1.1-0.5 0.2-2.4 0.2-5.2 0.2z"/></g><g style="mix-blend-mode:soft-light"></g><g style="mix-blend-mode:soft-light"></g><g style="mix-blend-mode:soft-light"></g><g style="mix-blend-mode:soft-light"><path class="f" d="m419.8 377.9c2 0.5-1.7 0.7-8 0.7 5-0.1 7.6-0.2 5.9-0.7-4-1-27.6-2.5-41.4-2.5 13.3-0.1 39.3 1.4 43.5 2.5z"/></g><g style="mix-blend-mode:soft-light"></g><g style="mix-blend-mode:soft-light"></g><g style="opacity:.7;mix-blend-mode:multiply"></g><g style="opacity:.6"></g><g style="opacity:.6"></g><g style="opacity:.6"></g><g style="opacity:.6"></g><g style="opacity:.6"></g><g style="opacity:.7;mix-blend-mode:multiply"></g><path class="g" d="m199.6 179.6c4-2.1 8.6-3.3 13.3-4.3 0-0.3 0.1-0.6 0.1-0.9 9.1-2.5 83-16.4 75.8-23.8-10.5-6-39.2-3.1-52.5-2.4-35.9 3.2-71 10.2-104.3 20.3-7 2.7-64.3 17.9-52.3 24.2 8.2 3 18.3 1.3 26.7-0.7-0.2 1.1-1.4 1.2-2.3 1.5-10.7 4.1-21.5 8-33.4 9.9-6.9 1.6-19.6 0.2-19.9-7 0.1-7.6 21.9-18.3 29.2-24.9 12.4-7.7 8.3-18.9 22.5-24.6 26.3-11.6 58.7-8.2 86.6-16.6 3.1-1 6.8-1.6 9.5-3.3 9.1-6.7 20.2-11.7 31.4-16.3 6.9-2.6 14.5-4.2 22.2-2.7 5.4 1.1 8.5 5.5 5.9 9.6-1.2 2-3.6 3.1-5.2 4.9 27.5-7.9 74-14.2 99.1 0.1 14.8 9.3 3.1 25-12 29.8-7.3 2.9-15.2 4.1-22.9 6 18.8 0.3 39.1-5.7 54.7-13.2 21.8-10.6 38.4-25.4 56.2-39.1 12.6-9.8 29.9-15.6 48.1-17.4 29.4-3.3 50.7 5.1 25.9 25.6 9.6-2.2 20.3-4.4 30.1-1.7 11.9 3.6 2 9.9-5.5 11.7 25.4 0.3 75.2 13.1 23.9 24.2-19.9 4.2-45.2 8.6-63-1.4 7.7 0.3 16.4 2.9 22.8-1.7-16.7-6.8-36.9-5.5-55.1-3.4-21.7 2.4-40.4 10.9-57.3 20.6-14.8 8.2-33.5 11.2-51.7 11.7-48.7 2.5-99.5-7.2-146.6 5.3z"/><path class="h" d="m578.8 180.4c-17.7 10.9-55.2 13.1-77.5 10.9-12.8-0.6-22.4-2.6-32.9-8.1 1.4-0.6 2.4 0.1 3.3 0.3 3.1 1.1 6.1 0.6 9.3 0.3 6.6-0.1 13-1.1 19.3-2.3 24.2-4.4 44.1-15.8 64.4-25.7 17-7.8 39.8-14.8 59.5-8.4 8.2 2.8 12.1 9.2 10.8 15.7 6.6-1.4 13.3-2.7 20.2-2 7.3 0 15.4 4.5 9.9 10 13-4.1 28.7-5 40.8 1.1 7.2 2.7 7.1 10.6 15.8 11.7 16.5 0.1 32.8-3.3 49.4-3.3 8.3 0 17.5 2.1 20.3 8.5 3.9 7.6 1.3 17-8.7 21.5-14.5 5.9-31.7 6.5-47.8 8.3-41 1.7-82.3 0.9-122.9 5-27.3 1.9-54.1 6.3-81.3 8.7-12.5 0.8-24.2 5.5-37 4.3 45.2-5.7 42.7-18.9 77.1-30.9 9.5-3.1 45.1-11.5 44.4 1.9 9.2-3.7 34.3-10.4 34.6 2.4 10.2-3.2 20.9-2.5 31.4-0.5 13.6 1.1 28.3 2.2 41.1-2.1 16.5-6.5 12.4-12.8-3.5-16.8-10.5-2.4-21.8-2.7-32.7-2.9-10.7 0.1-21.3 1.7-31.8 2.8-9.3 0.2-18.7 0.6-27.9 1-15.6 0.5-43.7 3.5-47.6-11.4z"/><path class="i" d="m262.1 194.1c-7.1-4.9 1.6-10.5 8.6-11.5 11.8-2.3 25-1.6 36.2 1.9 7.6-4.9 22.1-1.5 31.4-1.2 9.8 0.9 19.5 1.1 29.3 0.9 16.6-1.5 32.8-6.4 49.7-5.7 35.1 4.3 1.6 33-27.8 27.6 8.6-2.6 15.2-11.3 0.5-9.8-8.9 0.8-16.4 4.6-23.6 8.3-18.7 10.8-42.8 17.3-66.8 14.5-20.8-1.6-43.2-4.2-63.1 2-1.4 0.4-2.4 0.9-2.3 2.2-1.9 1.3-0.7 2.4 0.4 3.6 4.9 5.1 13.4 7.2 21.6 7.9 27.6 2.7 53.5-4.9 79.1-11.4 15.7-3.5 69.7-13.7 71.5 5.1 8-2.2 23.5-5.6 27 2.5 4 11.5 33.7 6 45.3 4.9-0.3 0.7-1.7 0.3-1.7 1.2-30.9 7.9-63.6 8.8-96 8.4-37.7 1.7-75.6 1.9-113-1.2-16.7-1.2-33.4-3.8-49.1-8.3-70-18.5 11-37.8 42.8-41.9z"/><path class="j" d="m129.3 130.6c-6.2 1.5-11.8 4.2-18.3 4.7-5.4 0.6-10.7 1.1-15.9 2.2-10.1 2.3-17.6 8.4-26.2 12.7-4.3 2.4-12.5 3.5-14.8-1.1-25.8 6.9-27.6-5.6-3.3-10.2-19.4-10.7 12.3-15.4 23.7-12.7 20.7 2.9 32.7 8.1 54.7 4.2q0.1 0.1 0.1 0.2z"/><path class="k" d="m78.3 191.5c0 0-5.1-3.1 19.9-13.1 25.1-10 48.2-18.7 87.9-27.6 36.5-8.2 58.7-21.8 62-24-3.1 2.1-21.3 14.4-14.7 17.3 7.3 3.2 76-8.6 73.2 3.5-2.8 12-68.5 21.2-72.6 24q-4.2 2.7 45-4.3-10.8 2.5-5.9 4.3c5 1.8 90 4.5 105.2-3.4 15.2-8 39.4-43.9 110-36.1 70.6 7.8 31.5 20-0.8 15 7.7 0.3 16.4 2.9 22.8-1.7-16.7-6.8-36.9-5.5-55.1-3.4-21.7 2.4-40.4 10.9-57.3 20.6-14.8 8.2-33.5 11.2-51.7 11.7-48.7 2.5-99.5-7.2-146.6 5.3 4-2.1 8.6-3.3 13.3-4.3 0-0.3 0.1-0.6 0.1-0.9 9.1-2.5 83-16.4 75.8-23.8-10.5-6-39.2-3.1-52.5-2.4-35.9 3.2-71 10.2-104.3 20.3-6.6 2.6-57.7 16.2-53.7 23z"/><path class="l" d="m451.4 93.9c7.8-2.6 16.1-4.4 24.7-5.2 29.4-3.3 50.7 5.1 25.9 25.6 9.6-2.2 20.3-4.4 30.1-1.7 11.9 3.6 2 9.9-5.5 11.7 25.3 0.3 74.8 12.9 24.5 24.1 0.5-0.2 22.4-7.4 14.9-12.9-7.6-5.5-37.6-10-53.8-10.5q18.8-0.4 18.9-6.5 0-6.2-52 2.5 25.2-8.2 17.3-21.5c-6.2-10.3-25.2-11.7-45-5.6z"/><path class="m" d="m106.4 192c-0.2 1.1-1.4 1.2-2.3 1.5-10.7 4.1-21.5 8-33.4 9.9-6.9 1.6-19.6 0.2-19.9-7 0.1-7.6 21.9-18.3 29.2-24.9 12.4-7.7 8.3-18.9 22.5-24.6 6.4-2.8 13.1-4.7 20.1-6.2l-3.3 0.8q-22.5 8.2-26.1 19.5c-3.6 11.4 68.1-16.3 46.1-6.1-21.9 10.2-67.3 18-78.6 32.3-11.4 14.4 29.4 13.7 45.7 4.8z"/><path class="n" d="m530.7 232.6q-2.9 0.2-5.7 0.6 57.1-7.7 79.5-19.2c21.2-11-6-13.6-17.6-11.9 13.3-2.3 28.8-3 28.3 5.8 3.1-1.2 8.2-2.9 13.4-3.9-0.1 0-14.9 4-17.1 9.6-2.3 5.7 52.8-4.6 29.5-10.7 5 0.5 8.7 2.6 8.8 7.4 3-1 6.1-1.5 9.1-1.9-0.7 0.2-11.1 2.9-9.7 6.3 1.4 3.4 67.1 4.6 80.2-10.6 7.4-5.2 2.3-10-10.6-13.2-10.5-2.4-21.8-2.7-32.7-2.9-10.7 0.1-21.3 1.7-31.8 2.8-9.3 0.2-18.7 0.6-27.9 1-15.6 0.5-43.7 3.5-47.6-11.4-17.7 10.9-55.2 13.1-77.5 10.9-12.8-0.6-22.4-2.6-32.9-8.1q33.8 15.8 79.4 0.8c45.7-15 53-29.9 84.2-20.3q4.6-23.5-45.1-16c12.3-3.1 25.3-4.2 37.3-0.3 8.2 2.8 12.1 9.2 10.8 15.7 5.9-1.3 11.8-2.4 17.9-2.2-1.2 0.1-13.2 0.5-22.5 8.3q-3-6.8-25.9-2.8c-22.9 4.1-16.8 22.1-2 23.9 14.9 1.9 77.9-18.6 57-28.7 5.7 1.3 10.1 5.1 5.6 9.5 5-1.6 10.3-2.7 15.6-3.1-0.5 0.1-14.2 1.9-27.3 12.1-13.3 10.4 76.2 6.6 53.5-7.5 6.2 3.1 6.5 10.3 14.8 11.3 12.6 0.1 25.2-1.9 37.8-2.8-2.7 0.2-32 3-28 8.4 4.3 5.7 22.3 16.6 39.1 16.2 14.8-0.4 25.9-16.8 11.2-23.7 4.4 1.2 8 3.4 9.6 7.1 3.9 7.6 1.3 17-8.7 21.5-14.5 5.9-31.7 6.5-47.8 8.3-41 1.7-82.3 0.9-122.9 5-27.3 1.9-54.1 6.3-81.3 8.7z"/><path class="o" d="m52.3 127.2c-1.7 0.8-4 2.6-3.3 6.3 0.9 5.6 26.1-3.1 42.3-1q-24.7 0.3-45.3 10c-20.6 9.7 5.1 10.5 17.1 0q-4.1 7.4 2 6.9c6.1-0.4 10.3-16.5 36.9-14.6 7.3 0.5 14.7-0.6 21.6-2.6-4.1 1.4-8.1 2.7-12.6 3.1-5.4 0.6-10.7 1.1-15.9 2.2-10.1 2.3-17.6 8.4-26.2 12.7-4.3 2.4-12.5 3.5-14.8-1.1-25.8 6.9-27.6-5.6-3.3-10.2-10.2-5.6-6.2-9.6 1.5-11.7z"/><path class="p" d="m446.3 242.8q-4 0.5-8 0.9-0.1 0-0.2 0-7.9 0.8-16 1.2-0.1 0-0.2 0-3.8 0.2-7.6 0.3-0.3 0-0.6 0.1-7.8 0.2-15.6 0.3-0.7 0-1.5 0-3 0-6 0-1 0-1.9 0-3.7-0.1-7.3-0.1c-37.7 1.7-75.6 1.9-113-1.2q-9.6-0.7-19.1-2c14.6 0.3 28.3-0.3 35.8-2.6 18.7-5.9 14.2-6.8 39.5-13.5q5.4-1.4 10.7-2.8 0.4 0 0.8-0.1c0 0-28.1 8.2-30.4 13.8-2.2 5.6 74.9 6.9 98.7-5.5q-5.1 6.7-19.4 8.9 29 5 61.3 2.3z"/><path class="q" d="m417.9 202.1q-2.2 1-4.7 1.9 0 0-0.1 0-0.8 0.3-1.6 0.5-1.7 0.5-3.4 0.9-0.1 0.1-0.2 0.1-0.8 0.2-1.6 0.3 0 0-0.1 0.1-0.9 0.1-1.7 0.3-0.1 0-0.2 0-0.8 0.1-1.5 0.2-0.2 0-0.4 0-0.8 0.1-1.5 0.2-0.1 0-0.2 0-0.9 0.1-1.7 0.1-0.2 0-0.4 0-0.7 0-1.3 0-0.3 0-0.5 0-0.8 0-1.5 0-0.1 0-0.2 0-0.8 0-1.7-0.1-0.2 0-0.4-0.1-0.7 0-1.3-0.1-0.3 0-0.5-0.1-0.9-0.1-1.7-0.2c8.6-2.6 15.2-11.3 0.5-9.8-8.9 0.8-16.4 4.6-23.6 8.3-7 4.1-14.8 7.5-23.1 10.1-13.7 4.3-28.7 6.1-43.7 4.4-20.8-1.6-43.2-4.2-63.1 2-1.4 0.4-2.4 0.9-2.3 2.2-1.9 1.3-0.7 2.4 0.4 3.6q0.5 0.4 0.9 0.9 0.2 0.1 0.4 0.3 0.3 0.2 0.6 0.5 0.3 0.2 0.5 0.3 0.3 0.3 0.6 0.5 0.3 0.1 0.5 0.3 0.3 0.2 0.7 0.4 0.2 0.1 0.5 0.3 0.3 0.2 0.6 0.3 0.3 0.2 0.6 0.3 0.3 0.2 0.7 0.3 0.3 0.2 0.6 0.3 0.3 0.1 0.7 0.3 0.3 0.1 0.6 0.2 0.4 0.1 0.7 0.3 0.3 0.1 0.6 0.2 0.4 0.1 0.8 0.2 0.3 0.1 0.6 0.2 0.4 0.1 0.8 0.2 0.3 0.1 0.7 0.2 0.4 0.1 0.8 0.2 0.3 0 0.6 0.1 0.4 0.1 0.8 0.2 0.4 0 0.7 0.1 0.4 0.1 0.9 0.1 0.3 0.1 0.5 0.1 0.5 0.1 1 0.2 0.3 0 0.5 0 0.8 0.1 1.5 0.2c-5.1-0.5-53.1-6-33.6-20.5 20.5-15.3 64.2 3.9 89.4 2 7.3-0.5 9.7-2 9.5-3.9-0.2-1-1-2.1-2.2-3.2q-4.7-4.1-15.2-8.5-32.5-0.6-40.4-6.4-0.5-0.3-0.8-0.6-0.1-0.1-0.2-0.2-0.3-0.3-0.6-0.6 0 0 0 0-0.3-0.3-0.5-0.6 0-0.1-0.1-0.2-0.1-0.3-0.2-0.5 0-0.1-0.1-0.1-0.1-0.3-0.1-0.6 0-0.1 0-0.1-0.1-0.3-0.1-0.6 0 0 0-0.1 0.1-0.3 0.2-0.6 0 0 0-0.1 0.1-0.2 0.2-0.5 0 0 0-0.1 0.2-0.3 0.3-0.6 0.1 0 0.1 0 0.2-0.3 0.4-0.6 0 0 0.1 0 0.2-0.3 0.5-0.6 0.3-0.3 0.7-0.6 0.7-0.5 1.5-1 0.8-0.5 1.7-0.9-17.3 9.7 26 12.7-36.8-14 20.7-8.1c-58.6-3.2 28.1 29.5 51.6 15.1 23.5-14.5 48.5-21.4 52.6-12.4q4.1 9.1-17.6 13.4c6.8 1 19.4-2.8 19.5-2.9z"/><path class="r" d="m210.2 119.8c6.3-3.4 13-6.4 19.8-9.1 6.9-2.6 14.5-4.2 22.2-2.7 5.4 1.1 8.5 5.5 5.9 9.6-1.2 2-3.6 3.1-5.2 4.9 27.5-7.9 74-14.2 99.1 0.1 14.8 9.3 3.1 25-12 29.8-7.3 2.9-15.2 4.1-22.9 6 18.8 0.3 39.1-5.7 54.7-13.2 21.8-10.6 38.4-25.4 56.2-39.1 9.7-7.6 22.3-12.8 35.8-15.6-6.1 1.4-22.3 6.2-34.9 19.7-15.9 17-67.8 71.7-125.3 51.2q43.1-8.7 46.9-26.4c3.8-17.8-51-23.1-100.6-11q9.1-6 1.9-12.1c-6-5.1-26.4 1.1-41.6 7.9z"/><path class="s" d="m468.4 183.2c1.4-0.6 2.4 0.1 3.3 0.3 3.1 1.1 6.1 0.6 9.3 0.3 6.6-0.1 13-1.1 19.3-2.3 24.2-4.4 44.1-15.8 64.4-25.7 6.4-2.9 13.6-5.7 21.1-7.8-0.1 0.1-24.3 8.4-49.5 26.8q-25.2 18.4-67.9 8.4z"/><path class="t" d="m552.2 221c-7 5.9-16.2 9.6-25.3 12-6.3 0.7-12.5 2.2-18.8 3.2q-8.4 0.9-14.4 0.7c45.2-5.7 42.7-18.9 77.1-30.9 3-1 8.7-2.5 15-3.7-3.8 0.8-16.8 4.4-33.6 18.7z"/><path class="u" d="m265.1 184.2c1.8-0.8 3.7-1.3 5.6-1.6 11.8-2.3 25-1.6 36.2 1.9 7.6-4.9 22.1-1.5 31.4-1.2 9.8 0.9 19.5 1.1 29.3 0.9 16.6-1.5 32.8-6.4 49.7-5.7 22.6 2.7 16.8 15.6 1.9 23 1-0.5 14.5-8 12.4-14.2-2.3-6.4-17.2-9.6-41.6-1.9-24.4 7.8-47.6 3.6-62.6 0q-14.9-3.5-19.1 1.2c-24.3-7.8-43.2-2.3-43.2-2.4z"/><path class="v" d="m479.1 235.9c-54.7 10.3-45.1 0.4-52.2-4.7q-7.1-5.1-22.5 0.4-15.5-19-69.1-8.2c15.7-3.5 69.7-13.7 71.5 5.1 8-2.2 23.5-5.6 27 2.5 4 11.5 33.7 6 45.3 4.9z"/></svg>