<svg version="1.2" xmlns="http://www.w3.org/2000/svg" viewBox="0 0 800 400" width="1000" height="500"><style>.a{fill:#a7c8fb}.b{fill:#ffffae}.c{fill:#e0ecfc}</style><g style="mix-blend-mode:soft-light"></g><g style="mix-blend-mode:soft-light"><path class="a" d="m404.4 373.1c1.6 0 2.7-0.1 3-0.2 1.1-0.3-2-0.8-6.4-1.3q1.8 0.1 3.7 0.2c3.5 0.5 5.8 0.9 4.9 1.1-0.5 0.2-2.4 0.2-5.2 0.2z"/></g><g style="mix-blend-mode:soft-light"></g><g style="mix-blend-mode:soft-light"></g><g style="mix-blend-mode:soft-light"></g><g style="mix-blend-mode:soft-light"><path class="a" d="m419.8 377.9c2 0.5-1.7 0.7-8 0.7 5-0.1 7.6-0.2 5.9-0.7-4-1-27.6-2.5-41.4-2.5 13.3-0.1 39.3 1.4 43.5 2.5z"/></g><g style="mix-blend-mode:soft-light"></g><g style="mix-blend-mode:soft-light"></g><circle class="b" cx="419.3" cy="126.1" r="72.6"/><g style="mix-blend-mode:multiply"><path class="c" d="m483.2 126.3q0 3.3-0.5 6.4c-0.7 3.9-1.9 7.6-3.6 11.2-1.7-0.7-3.6-1.1-5.3-0.4-2.3 1.1-3.2 3.9-3.8 6.1-0.7 2.4-0.7 4.9 0.9 6.9 0.7 0.7 1.5 1.2 2.4 1.5-2 3.5-4 7-6.1 10.3-1.7 2.6-3.6 5-6 7.1 0-2.1-0.7-4.1-2-5.8-2.4-3.2-6.6-4.3-10.5-3.4-4.1 0.9-7.6 4.1-7.6 8.6-0.1 2.4 0.1 4.8-0.4 7.2q-0.3 1.7-0.9 3.3c-0.1 0.4-0.1 0.9-0.6 1-0.5 0.1-1.3-0.1-1.9-0.1-4.8-0.2-9.7 0.6-14.1 2.4-4.1 1.6-8.3 4.2-12.8 4-2.3-0.2-4.4-1.3-6.5-2.3q-3.2-1.8-6.4-3.6c-2-1.3-4-2.5-6-3.8-1.7-1.1-3.4-2.5-3.6-4.6-0.2-2.5 1.3-4.6 2.9-6.3 0.9-0.9 1.8-1.7 2.8-2.6 0.7-0.7 1.5-1.5 1.4-2.6-0.1-1.1-0.9-1.7-1.7-2.3-0.8-0.6-1.4-1.4-1.5-2.4-0.2-1.7 1-3 2.6-3.3 0.2 0.5 0.6 0.9 1.3 0.9 6.5 0.4 12.5 3.8 19 4.2 2 0.2 2-2.8 0-3q-0.2 0-0.4 0 1.4-1.8 3-3.5c1.4-1.4 2.8-2.6 4.8-3.1 4.3-0.8 8.6-1.5 12.9-2.6q3.2-0.8 6.4-1.8c1.9-0.6 3.6-1.2 5-2.5 1.6-1.5 2.9-3.2 4.3-4.7q1.7-2 3.5-4c1 0.9 2.1 1.9 3.4 2 1.7 0.3 2.6-1 3.4-2.3 0.7-1.2 2.2-3.2 3.8-2.5 0.6 0.2 1 0.9 1.5 1.4 0.6 0.5 1.3 0.9 2.1 1 1.7 0.2 3.3-0.9 4.6-1.9 1.4-1 2.7-2 3.4-3.5 1.7-3.4 0-6.9-2.1-9.7-2-2.6-4.3-5.3-2.7-8.8 0.6-1.5 1.7-2.7 2.9-3.9q0.9-0.9 1.8-1.7c0.4-0.3 1.5-1.5 2-1.4 0.8 0 0.5 2.4 0.5 2.9 0.1 1.5 0.5 3 1.8 3.8 0.6 0.3 1.2 0.5 1.9 0.6 0.3 0 1.3-0.1 1.5 0.2 0.2 0.3-0.7 1.9-0.8 2.2-0.2 0.9-0.3 1.9-0.3 2.8 0.1 2.2 0.4 4.3 0.3 6.4z"/><path class="c" d="m380.2 167.9c1.2 1.9-1.2 3.2-2.8 3.2-1.9 0-3.6-1.1-5-2.3-3.2-2.8-5.9-6.4-8.5-9.7-2.9-3.6-5.6-7.4-7.6-11.5-0.4-0.8-1.3-2.2-0.9-3.1 0.5-1.2 1.5 0.5 1.9 1 1.1 1.7 1.6 3.6 2 5.6 0.4 1.9 0.9 3.9 2.6 5.1 2 1.3 4.5 0.9 6.7 0.3 1-0.3 1.5-1.8 0.7-2.5-0.8-0.7-1-1.9-0.3-2.8 0.8-0.8 2.1-0.9 3.1-0.6 1.2 0.5 2.1 1.6 2.5 2.7 0.3 0.8 0.3 1.3 0 2-0.3 0.6-0.6 1.2-0.6 1.9 0.1 2.8 3.3 3.1 5.4 3.6 1.1 0.2 2.8 0.9 2.7 2.4 0 0.6-0.5 1-0.8 1.4q-0.3 0.6-0.3 1.2c-0.8 0.3-1.5 1.2-0.8 2.1z"/><path fill-rule="evenodd" class="c" d="m363.6 105.7c0.9-0.9 1.5-1.9 1.7-3.1 0.2-1.4-0.3-2.7-0.2-4.1 0-1.4 0.4-2.9 1-4.1 1.2-2.6 3-4.8 4.9-6.8 3.7-4 8-7.4 12.6-10.2 4.7-2.8 9.8-5.1 15-6.4 1.5-0.3 2.3 0 3.5 0.8 1.1 0.8 2.2 1.7 3.1 2.8 0.7 0.9 1.4 2 1.2 3.1-0.3 1.2-1.4 1.8-2.5 2.1-2.7 0.8-5.7-0.2-8.5-0.6-2.7-0.4-5.4-0.5-8 0.5-4.6 1.8-7.6 6.1-10 10.2-0.7 1.1-1.6 2.3-1.4 3.7 0.2 1.5 1.6 2.6 2.9 3.3 2.6 1.4 5.8 1.3 8.6 0.6 1.6-0.3 3.2-0.9 4.7-1.5 0.9-0.3 2.9-1.4 3.9-0.8 0.5 0.3 0.5 1.4 0.6 2q0.2 1.1 0.4 2.3 0.3 1.9 0.6 3.9c-4.9 0.6-9.4 3.8-11.5 8.3-0.6 1.2-0.9 2.5-1.2 3.9-0.4 1.6-0.9 2.4-2.5 2.9-2.8 1-5.7 1.3-8.6 1-0.1-0.7-0.5-1.3-1.4-1.3-3.1 0-6.2 0.2-9.2-0.1q0 0-0.1 0c0.1-0.2 0.3-0.4 0.4-0.5 0.2-0.4 0.5-0.9 0.6-1.4 0.3-1 0.2-2-0.1-2.9-0.5-1.7-2-3.5-2-5.4 0-1 0.9-1.6 1.5-2.2z"/><path class="c" d="m413.7 69.6c2.2-1.5 5.3-0.9 7.7-0.8 5.8 0.5 11.7-0.3 17.3 1.6 5 1.6 8.4 6 8.8 11.3 0.1 0.5 0 1.1 0.1 1.7-0.2 0-0.5 0-0.5 0q-2.3-0.1-4.5 0.3c-1.4 0.2-2.6 0.7-3.9 1.1-1.4 0.4-2.4 0.3-3.5-0.4-2.5-1.4-4.3-3.4-7.2-3.9-2.4-0.5-4.8-0.3-7.2 0.1q-0.1-1.8-0.7-3.6c-0.3-0.7-0.9-1-1.6-1q-1.4-1.7-2.9-3.3-0.7-0.9-1.4-1.7c-0.2-0.2-0.6-0.6-0.7-0.9-0.1-0.3-0.2-0.2 0.2-0.5z"/><path fill-rule="evenodd" class="c" d="m451.5 94.3q0.6-0.1 1.2 0 0.1 0 0.1 0 0 0.1-0.1 0.2-0.2 0.7-0.1 1.4c0.1 1 0.5 1.9 0.7 2.8 0.4 2-2.3 1.8-3.5 1.6q-3.6-0.4-7-1.1-0.9-0.2-1.8-0.4c-0.2 0-0.7-0.2-0.9-0.2q0-0.4-0.1-0.8c0.4-0.8 0.1-1.5-0.6-2-0.1-0.1 0-0.5 0.1-0.6 0.1-0.4 0.5-0.6 0.9-0.7 1.3-0.5 2.7 0 4 0.2 1.6 0.2 3.2 0.1 4.8-0.1 0.8-0.1 1.5-0.3 2.3-0.3z"/><path class="c" d="m410.2 149.7q-0.7 0.6-1.4 1c-0.8 0.7-1.7 1-2.7 0.8q-0.1-0.1-0.3-0.2-1.7-1-3.3-2-0.8-0.4-1.5-0.9 4.2-1.7 8.5-2.7 0.1 0.6 0.3 1.2 0.3 0.8 0.8 1.5 0.2 0.3 0.5 0.6-0.5 0.4-0.9 0.7z"/></g><g style="opacity:.9;mix-blend-mode:screen"></g><g style="opacity:.4;mix-blend-mode:screen"></g><g style="opacity:.7;mix-blend-mode:multiply"></g><g style="opacity:.6"></g><g style="opacity:.6"></g><g style="opacity:.6"></g><g style="opacity:.6"></g><g style="opacity:.6"></g><g style="opacity:.7;mix-blend-mode:multiply"></g></svg>