<svg id="visual" viewBox="0 0 900 450" width="900" height="450" xmlns="http://www.w3.org/2000/svg" xmlns:xlink="http://www.w3.org/1999/xlink" version="1.1"><path d="M0 170L30 162.5C60 155 120 140 180 134C240 128 300 131 360 140.7C420 150.3 480 166.7 540 172.3C600 178 660 173 720 171.5C780 170 840 172 870 173L900 174L900 0L870 0C840 0 780 0 720 0C660 0 600 0 540 0C480 0 420 0 360 0C300 0 240 0 180 0C120 0 60 0 30 0L0 0Z" fill="#121254"></path><path d="M0 116L30 113C60 110 120 104 180 105.3C240 106.7 300 115.3 360 121.2C420 127 480 130 540 140.2C600 150.3 660 167.7 720 163.2C780 158.7 840 132.3 870 119.2L900 106L900 0L870 0C840 0 780 0 720 0C660 0 600 0 540 0C480 0 420 0 360 0C300 0 240 0 180 0C120 0 60 0 30 0L0 0Z" fill="#13145a"></path><path d="M0 148L30 140.5C60 133 120 118 180 112.8C240 107.7 300 112.3 360 113.5C420 114.7 480 112.3 540 114.3C600 116.3 660 122.7 720 124.8C780 127 840 125 870 124L900 123L900 0L870 0C840 0 780 0 720 0C660 0 600 0 540 0C480 0 420 0 360 0C300 0 240 0 180 0C120 0 60 0 30 0L0 0Z" fill="#141661"></path><path d="M0 102L30 100C60 98 120 94 180 92.7C240 91.3 300 92.7 360 94.2C420 95.7 480 97.3 540 104C600 110.7 660 122.3 720 116C780 109.7 840 85.3 870 73.2L900 61L900 0L870 0C840 0 780 0 720 0C660 0 600 0 540 0C480 0 420 0 360 0C300 0 240 0 180 0C120 0 60 0 30 0L0 0Z" fill="#151868"></path><path d="M0 72L30 70.2C60 68.3 120 64.7 180 60.2C240 55.7 300 50.3 360 58C420 65.7 480 86.3 540 87.3C600 88.3 660 69.7 720 61C780 52.3 840 53.7 870 54.3L900 55L900 0L870 0C840 0 780 0 720 0C660 0 600 0 540 0C480 0 420 0 360 0C300 0 240 0 180 0C120 0 60 0 30 0L0 0Z" fill="#151a6e"></path><path d="M0 33L30 36.2C60 39.3 120 45.7 180 49.7C240 53.7 300 55.3 360 60.5C420 65.7 480 74.3 540 77.7C600 81 660 79 720 73.7C780 68.3 840 59.7 870 55.3L900 51L900 0L870 0C840 0 780 0 720 0C660 0 600 0 540 0C480 0 420 0 360 0C300 0 240 0 180 0C120 0 60 0 30 0L0 0Z" fill="#161c75"></path><path d="M0 51L30 53.7C60 56.3 120 61.7 180 57.5C240 53.3 300 39.7 360 37.5C420 35.3 480 44.7 540 50.3C600 56 660 58 720 60.2C780 62.3 840 64.7 870 65.8L900 67L900 0L870 0C840 0 780 0 720 0C660 0 600 0 540 0C480 0 420 0 360 0C300 0 240 0 180 0C120 0 60 0 30 0L0 0Z" fill="#161e7b"></path><path d="M0 31L30 33.2C60 35.3 120 39.7 180 36.3C240 33 300 22 360 16.3C420 10.7 480 10.3 540 11.7C600 13 660 16 720 16.2C780 16.3 840 13.7 870 12.3L900 11L900 0L870 0C840 0 780 0 720 0C660 0 600 0 540 0C480 0 420 0 360 0C300 0 240 0 180 0C120 0 60 0 30 0L0 0Z" fill="#162082"></path></svg>